<?xml version="1.0" standalone="no"?>
<!DOCTYPE svg PUBLIC "-//W3C//DTD SVG 20010904//EN"
 "http://www.w3.org/TR/2001/REC-SVG-20010904/DTD/svg10.dtd">
<svg version="1.0" xmlns="http://www.w3.org/2000/svg"
 width="600.000000pt" height="600.000000pt" viewBox="0 0 600.000000 600.000000"
 preserveAspectRatio="xMidYMid meet">
<metadata>
Created by potrace 1.11, written by Peter Selinger 2001-2013
</metadata>
<g transform="translate(0.000000,600.000000) scale(0.100000,-0.100000)"
fill="#000000" stroke="none">
<path d="M1920 5402 c0 -5 -8 -17 -19 -28 -84 -91 -278 -373 -388 -564 -56
-98 -213 -402 -213 -414 0 -3 -17 -42 -39 -88 -21 -46 -42 -94 -46 -108 -4
-14 -18 -49 -32 -79 -13 -30 -27 -67 -30 -83 -3 -15 -10 -31 -14 -34 -5 -3 -9
-12 -9 -21 0 -8 -6 -29 -14 -46 -48 -112 -208 -658 -242 -832 -2 -11 -8 -43
-14 -71 -6 -28 -13 -63 -16 -79 -3 -16 -7 -32 -9 -36 -3 -4 -7 -24 -10 -45 -3
-22 -10 -59 -15 -84 -10 -45 -19 -97 -25 -135 -2 -11 -10 -63 -19 -115 -8 -52
-17 -108 -20 -125 -2 -16 -9 -59 -15 -95 -5 -36 -13 -90 -16 -120 -3 -30 -10
-82 -15 -115 -5 -33 -12 -89 -15 -125 -4 -36 -8 -77 -11 -92 -5 -30 -1 -32 86
-43 166 -21 683 -28 880 -12 104 8 198 21 205 29 3 2 12 67 20 144 8 76 18
162 21 189 5 46 47 298 59 355 3 14 9 48 15 75 14 76 85 359 115 460 152 517
400 1063 770 1698 l95 162 -23 17 c-138 108 -455 284 -652 363 -38 15 -79 31
-90 35 -47 20 -228 70 -249 70 -3 0 -6 -4 -6 -8z"/>
<path d="M2852 4662 c-222 -370 -321 -557 -401 -760 l-21 -52 103 -69 c89 -60
194 -137 235 -171 7 -7 41 -35 75 -63 163 -136 402 -369 713 -696 54 -58 161
-168 237 -245 l138 -140 42 22 c155 79 416 232 582 340 121 80 302 209 310
222 3 6 -8 31 -26 57 -42 62 -252 342 -276 368 -10 11 -36 43 -58 70 -22 28
-44 55 -50 61 -5 6 -32 37 -60 69 -191 224 -531 551 -770 742 -22 17 -65 52
-95 76 -31 24 -123 92 -205 151 -83 58 -155 110 -160 114 -6 4 -49 33 -96 64
l-86 56 -131 -216z"/>
<path d="M4785 2904 c-151 -99 -416 -262 -515 -316 -25 -14 -65 -37 -90 -52
-57 -33 -431 -220 -530 -265 -243 -110 -718 -280 -829 -298 -14 -2 -32 -8 -40
-12 -36 -20 -462 -111 -590 -127 -25 -3 -53 -7 -61 -9 -8 -2 -37 -7 -65 -10
-27 -3 -65 -8 -83 -10 -18 -3 -60 -8 -95 -11 -34 -3 -80 -7 -102 -9 -285 -27
-883 -21 -1084 11 l-33 5 5 -463 c3 -255 8 -476 11 -493 3 -16 7 -55 10 -85 5
-52 17 -140 20 -140 334 -22 965 -20 1206 5 19 2 72 6 118 10 46 3 91 8 101
10 10 2 44 6 77 9 81 9 233 31 414 61 405 67 980 238 1395 415 105 45 399 183
425 200 8 5 42 23 75 41 207 108 484 284 705 447 63 47 117 88 120 91 3 3 38
32 78 65 39 32 72 63 72 68 0 6 -6 24 -14 41 -7 18 -19 48 -26 67 -22 58 -128
269 -188 370 -72 123 -312 490 -321 490 -3 0 -78 -48 -166 -106z"/>
</g>
</svg>
