<svg version="1" xmlns="http://www.w3.org/2000/svg" width="800" height="800" viewBox="0 0 600.000000 600.000000"><path d="M192 59.8c0 .5-.8 1.7-1.9 2.8-8.4 9.1-27.8 37.3-38.8 56.4-5.6 9.8-21.3 40.2-21.3 41.4 0 .3-1.7 4.2-3.9 8.8-2.1 4.6-4.2 9.4-4.6 10.8-.4 1.4-1.8 4.9-3.2 7.9-1.3 3-2.7 6.7-3 8.3-.3 1.5-1 3.1-1.4 3.4-.5.3-.9 1.2-.9 2.1 0 .8-.6 2.9-1.4 4.6-4.8 11.2-20.8 65.8-24.2 83.2-.2 1.1-.8 4.3-1.4 7.1-.6 2.8-1.3 6.3-1.6 7.9-.3 1.6-.7 3.2-.9 3.6-.3.4-.7 2.4-1 4.5-.3 2.2-1 5.9-1.5 8.4-1 4.5-1.9 9.7-2.5 13.5-.2 1.1-1 6.3-1.9 11.5-.8 5.2-1.7 10.8-2 12.5-.2 1.6-.9 5.9-1.5 9.5-.5 3.6-1.3 9-1.6 12-.3 3-1 8.2-1.5 11.5-.5 3.3-1.2 8.9-1.5 12.5-.4 3.6-.8 7.7-1.1 9.2-.5 3-.1 3.2 8.6 4.3 16.6 2.1 68.3 2.8 88 1.2 10.4-.8 19.8-2.1 20.5-2.9.3-.2 1.2-6.7 2-14.4.8-7.6 1.8-16.2 2.1-18.9.5-4.6 4.7-29.8 5.9-35.5.3-1.4.9-4.8 1.5-7.5 1.4-7.6 8.5-35.9 11.5-46 15.2-51.7 40-106.3 77-169.8l9.5-16.2-2.3-1.7c-13.8-10.8-45.5-28.4-65.2-36.3-3.8-1.5-7.9-3.1-9-3.5-4.7-2-22.8-7-24.9-7-.3 0-.6.4-.6.8z"/><path d="M285.2 133.8c-22.2 37-32.1 55.7-40.1 76L243 215l10.3 6.9c8.9 6 19.4 13.7 23.5 17.1.7.7 4.1 3.5 7.5 6.3 16.3 13.6 40.2 36.9 71.3 69.6 5.4 5.8 16.1 16.8 23.7 24.5l13.8 14 4.2-2.2c15.5-7.9 41.6-23.2 58.2-34 12.1-8 30.2-20.9 31-22.2.3-.6-.8-3.1-2.6-5.7-4.2-6.2-25.2-34.2-27.6-36.8-1-1.1-3.6-4.3-5.8-7-2.2-2.8-4.4-5.5-5-6.1-.5-.6-3.2-3.7-6-6.9-19.1-22.4-53.1-55.1-77-74.2-2.2-1.7-6.5-5.2-9.5-7.6-3.1-2.4-12.3-9.2-20.5-15.1-8.3-5.8-15.5-11-16-11.4-.6-.4-4.9-3.3-9.6-6.4l-8.6-5.6-13.1 21.6z"/><path d="M478.5 309.6c-15.1 9.9-41.6 26.2-51.5 31.6-2.5 1.4-6.5 3.7-9 5.2-5.7 3.3-43.1 22-53 26.5-24.3 11-71.8 28-82.9 29.8-1.4.2-3.2.8-4 1.2-3.6 2-46.2 11.1-59 12.7-2.5.3-5.3.7-6.1.9-.8.2-3.7.7-6.5 1-2.7.3-6.5.8-8.3 1-1.8.3-6 .8-9.5 1.1-3.4.3-8 .7-10.2.9-28.5 2.7-88.3 2.1-108.4-1.1l-3.3-.5.5 46.3c.3 25.5.8 47.6 1.1 49.3.3 1.6.7 5.5 1 8.5.5 5.2 1.7 14 2 14 33.4 2.2 96.5 2 120.6-.5 1.9-.2 7.2-.6 11.8-1 4.6-.3 9.1-.8 10.1-1 1-.2 4.4-.6 7.7-.9 8.1-.9 23.3-3.1 41.4-6.1 40.5-6.7 98-23.8 139.5-41.5 10.5-4.5 39.9-18.3 42.5-20 .8-.5 4.2-2.3 7.5-4.1 20.7-10.8 48.4-28.4 70.5-44.7 6.3-4.7 11.7-8.8 12-9.1.3-.3 3.8-3.2 7.8-6.5 3.9-3.2 7.2-6.3 7.2-6.8 0-.6-.6-2.4-1.4-4.1-.7-1.8-1.9-4.8-2.6-6.7-2.2-5.8-12.8-26.9-18.8-37-7.2-12.3-31.2-49-32.1-49-.3 0-7.8 4.8-16.6 10.6z"/></svg>