<?xml version="1.0" encoding="UTF-8"?>
<svg width="14px" height="12px" viewBox="0 0 14 12" version="1.1" xmlns="http://www.w3.org/2000/svg" xmlns:xlink="http://www.w3.org/1999/xlink">
    <!-- Generator: Sketch 51.2 (57519) - http://www.bohemiancoding.com/sketch -->
    <title>image</title>
    <desc>Created with Sketch.</desc>
    <defs></defs>
    <g id="Pillar-Template--✅" stroke="none" stroke-width="1" fill="none" fill-rule="evenodd">
        <g id="Pillars" transform="translate(-149.000000, -5154.000000)" fill="#78639E">
            <g id="Media-Gallery" transform="translate(65.000000, 4348.000000)">
                <g id="Caption" transform="translate(84.000000, 797.000000)">
                    <path d="M13.125,9.75 C13.6103516,9.75 14,10.1396484 14,10.625 L14,19.375 C14,19.8603516 13.6103516,20.25 13.125,20.25 L0.875,20.25 C0.389648438,20.25 0,19.8603516 0,19.375 L0,10.625 C0,10.1396484 0.389648438,9.75 0.875,9.75 L13.125,9.75 Z M3.0625,11.5 C2.33105469,11.5 1.75,12.0810547 1.75,12.8125 C1.75,13.5439453 2.33105469,14.125 3.0625,14.125 C3.79394531,14.125 4.375,13.5439453 4.375,12.8125 C4.375,12.0810547 3.79394531,11.5 3.0625,11.5 Z M12.25,18.5 L8.75,13.25 L5.54394531,17.3310547 L3.5,15.875 L1.75,18.5 L12.25,18.5 Z" id="image"></path>
                </g>
            </g>
        </g>
    </g>
</svg>