<?xml version="1.0" encoding="UTF-8"?>
<svg width="24px" height="24px" viewBox="0 0 24 24" version="1.1" xmlns="http://www.w3.org/2000/svg" xmlns:xlink="http://www.w3.org/1999/xlink">
    <!-- Generator: Sketch 51.1 (57501) - http://www.bohemiancoding.com/sketch -->
    <title>information</title>
    <desc>Created with Sketch.</desc>
    <defs></defs>
    <g id="Master-Subpage--✅" stroke="none" stroke-width="1" fill="none" fill-rule="evenodd">
        <g id="Mastersub---Image-Top" transform="translate(-189.000000, -989.000000)" fill="#FFFFFF">
            <g id="Image-Top---Hover" transform="translate(65.000000, 920.000000)">
                <path d="M136,69 C142.644531,69 148,74.3554688 148,81 C148,87.6445312 142.644531,93 136,93 C129.355469,93 124,87.6445312 124,81 C124,74.3554688 129.355469,69 136,69 Z M137.5,88.5 L137.5,80.0039062 L134.5,80.0039062 L134.5,88.5 L137.5,88.5 Z M136,77.4960938 C137.113281,77.4960938 138.003906,76.6054688 138.003906,75.5039062 C138.003906,74.390625 137.113281,73.5 136,73.5 C134.886719,73.5 133.996094,74.390625 133.996094,75.5039062 C133.996094,76.6054688 134.886719,77.4960938 136,77.4960938 Z" id="information"></path>
            </g>
        </g>
    </g>
</svg>