<?xml version="1.0" encoding="UTF-8"?>
<svg width="37px" height="31px" viewBox="0 0 37 31" version="1.1" xmlns="http://www.w3.org/2000/svg" xmlns:xlink="http://www.w3.org/1999/xlink">
    <!-- Generator: Sketch 51.1 (57501) - http://www.bohemiancoding.com/sketch -->
    <title>“</title>
    <desc>Created with Sketch.</desc>
    <defs></defs>
    <g id="HTML-Styles--✅" stroke="none" stroke-width="1" fill="none" fill-rule="evenodd">
        <g id="HTML-Styles" transform="translate(-128.000000, -3896.000000)" fill="#00AFD7">
            <g id="Block-quote" transform="translate(81.000000, 3861.000000)">
                <path d="M55.8,65.68 C50.2,65.68 47.32,61.36 47.32,54 C47.32,46 51.32,39.76 59.8,35.76 L62.68,41.68 C57.56,43.92 55,47.12 55,51.84 C55.24,51.76 55.56,51.76 55.8,51.76 C59.64,51.76 62.68,54.32 62.68,58.32 C62.68,62.8 59.8,65.68 55.8,65.68 Z M76.6,65.68 C71,65.68 68.12,61.36 68.12,54 C68.12,46 72.12,39.76 80.6,35.76 L83.48,41.68 C78.36,43.92 75.8,47.12 75.8,51.84 C76.04,51.76 76.36,51.76 76.6,51.76 C80.44,51.76 83.48,54.32 83.48,58.32 C83.48,62.8 80.6,65.68 76.6,65.68 Z" id="“"></path>
            </g>
        </g>
    </g>
</svg>