<svg width="432" height="193" xmlns="http://www.w3.org/2000/svg" xmlns:xlink="http://www.w3.org/1999/xlink"><defs><path id="a" d="M.492.44H23.98v33.5H.492z"/></defs><g fill="none" fill-rule="evenodd"><path fill="#412C6E" d="M72.047 163.323h-7.253v-2.564h17.585v2.564h-7.254v21.47h-3.078v-21.47m13.269-4.616h3.004v7.107l-.11 3.664c1.686-1.611 3.481-2.931 5.936-2.931 3.737 0 5.422 2.418 5.422 6.961v11.285h-3.004v-10.882c0-3.333-1.026-4.763-3.371-4.763-1.832 0-3.078.954-4.873 2.749v12.896h-3.004v-26.086m17.518 17.219c0-5.825 3.921-9.379 7.987-9.379 4.543 0 7.108 3.26 7.108 8.354 0 .622-.036 1.281-.11 1.722h-12.018c.22 3.773 2.529 6.192 5.936 6.192 1.686 0 3.114-.55 4.433-1.393l1.062 1.979c-1.538.988-3.442 1.831-5.861 1.831-4.764 0-8.537-3.481-8.537-9.306m12.457-1.466c0-3.589-1.612-5.531-4.396-5.531-2.493 0-4.764 2.014-5.129 5.531h9.525m11.071-1.684c0-7.731 4.543-12.457 10.661-12.457a8.775 8.775 0 0 1 6.596 2.967l-1.649 1.979c-1.282-1.356-2.858-2.271-4.91-2.271-4.542 0-7.546 3.737-7.546 9.709 0 6.045 2.893 9.855 7.437 9.855 2.308 0 4.029-1.026 5.569-2.71l1.686 1.904c-1.907 2.199-4.252 3.481-7.366 3.481-6.007 0-10.478-4.616-10.478-12.457m19.827 7.4c0-3.883 3.334-5.825 10.919-6.668 0-2.27-.733-4.469-3.664-4.469-2.052 0-3.921.952-5.312 1.905l-1.173-2.088c1.648-1.064 4.14-2.309 6.997-2.309 4.361 0 6.193 2.894 6.193 7.328v10.917h-2.491l-.258-2.125h-.109c-1.686 1.393-3.664 2.566-5.899 2.566-2.967 0-5.203-1.869-5.203-5.057m10.919.257v-4.946c-5.936.732-7.988 2.198-7.988 4.47 0 2.014 1.393 2.858 3.151 2.858 1.723 0 3.114-.844 4.837-2.382m7.552-13.446h2.491l.258 2.564h.109c1.539-1.685 3.408-3.005 5.533-3.005 2.711 0 4.177 1.284 4.909 3.409 1.868-2.015 3.7-3.409 5.863-3.409 3.663 0 5.422 2.419 5.422 6.963v11.283h-3.005v-10.88c0-3.335-1.063-4.763-3.297-4.763-1.393 0-2.821.915-4.469 2.747v12.896h-3.005v-10.88c0-3.335-1.063-4.763-3.334-4.763-1.319 0-2.822.915-4.47 2.747v12.896h-3.005v-17.805m29.283 0h2.491l.257 2.052h.11c1.612-1.356 3.59-2.493 5.679-2.493 4.58 0 7.034 3.555 7.034 9.087 0 6.046-3.626 9.6-7.694 9.6-1.648 0-3.297-.77-4.945-2.052l.072 3.115v6.007h-3.004v-25.316zm12.456 8.646c0-3.92-1.318-6.558-4.69-6.558-1.501 0-3.003.842-4.762 2.419v9.342c1.612 1.356 3.188 1.868 4.36 1.868 2.932 0 5.092-2.673 5.092-7.071zm5.172 4.543c0-3.883 3.334-5.825 10.918-6.668 0-2.27-.731-4.469-3.663-4.469-2.052 0-3.921.952-5.312 1.905l-1.173-2.088c1.647-1.064 4.14-2.309 6.997-2.309 4.361 0 6.192 2.894 6.192 7.328v10.917h-2.491l-.257-2.125h-.109c-1.686 1.393-3.664 2.566-5.899 2.566-2.968 0-5.203-1.869-5.203-5.057m10.918.257v-4.946c-5.934.732-7.988 2.198-7.988 4.47 0 2.014 1.395 2.858 3.152 2.858 1.723 0 3.115-.844 4.836-2.382"/><g transform="translate(229 159)"><mask id="b" fill="#fff"><use xlink:href="#a"/></mask><path d="M.492 2.381c0-1.173.917-1.941 2.09-1.941 1.172 0 2.087.768 2.087 1.941 0 1.136-.915 1.942-2.087 1.942-1.173 0-2.09-.806-2.09-1.942zm.551 23.412h3.004V7.988H1.043v17.805zm6.56 3.408c0-1.502.989-2.931 2.601-4.031v-.146c-.879-.55-1.575-1.502-1.575-2.895 0-1.503 1.024-2.674 1.941-3.298v-.146c-1.173-.953-2.307-2.674-2.307-4.799 0-3.884 3.076-6.338 6.704-6.338.989 0 1.869.182 2.528.439h6.193v2.308h-3.665c.842.806 1.464 2.161 1.464 3.663 0 3.811-2.893 6.193-6.52 6.193a6.22 6.22 0 0 1-2.674-.624c-.623.55-1.136 1.137-1.136 2.126 0 1.136.732 1.941 3.151 1.941h3.443c4.14 0 6.229 1.282 6.229 4.251 0 3.297-3.48 6.154-9.013 6.154-4.36 0-7.364-1.721-7.364-4.798m13.447-.917c0-1.649-1.283-2.199-3.592-2.199h-3.077c-.697 0-1.538-.072-2.309-.293-1.282.917-1.832 1.979-1.832 3.005 0 1.906 1.943 3.114 5.166 3.114 3.408 0 5.644-1.758 5.644-3.627m-2.31-14.398c0-2.601-1.685-4.139-3.773-4.139s-3.775 1.538-3.775 4.139 1.723 4.249 3.775 4.249c2.053 0 3.773-1.648 3.773-4.249" fill="#412C6E" mask="url(#b)"/></g><path d="M255.329 166.987h2.491l.258 2.564h.11c1.685-1.685 3.516-3.005 5.971-3.005 3.737 0 5.423 2.419 5.423 6.963v11.283h-3.005v-10.88c0-3.335-1.025-4.763-3.37-4.763-1.832 0-3.078.952-4.873 2.747v12.896h-3.005v-17.805m25.692 2.455h-2.417v-2.273l2.417-.181v-2.822c0-3.627 1.648-5.899 5.203-5.899a8.05 8.05 0 0 1 2.966.586l-.659 2.31a4.981 4.981 0 0 0-2.014-.441c-1.685 0-2.493 1.172-2.493 3.444v2.822h3.775v2.454h-3.775v15.351h-3.003v-15.351m7.403 6.484c0-5.971 3.885-9.379 8.244-9.379s8.243 3.408 8.243 9.379c0 5.9-3.884 9.306-8.243 9.306s-8.244-3.406-8.244-9.306m13.373 0c0-4.102-2.052-6.887-5.129-6.887-3.041 0-5.13 2.785-5.13 6.887 0 4.068 2.089 6.815 5.13 6.815 3.077 0 5.129-2.747 5.129-6.815m6.71-8.939h2.491l.258 3.223h.109c1.209-2.234 3.041-3.664 5.056-3.664.769 0 1.319.112 1.905.369l-.586 2.636c-.587-.182-.989-.292-1.722-.292-1.502 0-3.297 1.098-4.506 4.102v11.431h-3.005v-17.805m18.141-6.229h3.041v12.054h.11l10.002-12.054h3.443l-7.511 9.159 8.684 14.875h-3.407l-7.181-12.493-4.14 4.873v7.62h-3.041v-24.034m18.251 15.168c0-5.825 3.921-9.379 7.988-9.379 4.543 0 7.108 3.26 7.108 8.354 0 .622-.037 1.281-.11 1.722h-12.018c.221 3.773 2.529 6.192 5.936 6.192 1.685 0 3.114-.55 4.433-1.393l1.062 1.979c-1.538.988-3.443 1.831-5.862 1.831-4.763 0-8.537-3.481-8.537-9.306m12.457-1.466c0-3.589-1.612-5.531-4.396-5.531-2.492 0-4.763 2.014-5.13 5.531h9.526m5.94-7.473h2.491l.257 2.564h.11c1.686-1.685 3.517-3.005 5.972-3.005 3.737 0 5.422 2.419 5.422 6.963v11.283h-3.004v-10.88c0-3.335-1.025-4.763-3.37-4.763-1.832 0-3.078.952-4.873 2.747v12.896h-3.005v-17.805m17.152 25.096l.586-2.381c.368.11.917.256 1.356.256 2.015 0 3.298-1.611 4.03-3.809l.404-1.319-7.144-17.842h3.114l3.626 9.854a253.86 253.86 0 0 1 1.723 5.02h.146c.513-1.613 1.026-3.445 1.502-5.02l3.188-9.854h2.93l-6.703 19.27c-1.247 3.518-3.078 6.192-6.668 6.192a5.886 5.886 0 0 1-2.09-.367m16.347-16.157c0-5.971 3.882-9.379 8.243-9.379 4.359 0 8.243 3.408 8.243 9.379 0 5.9-3.884 9.306-8.243 9.306-4.361 0-8.243-3.406-8.243-9.306m13.372 0c0-4.102-2.052-6.887-5.129-6.887-3.041 0-5.13 2.785-5.13 6.887 0 4.068 2.089 6.815 5.13 6.815 3.077 0 5.129-2.747 5.129-6.815m6.71-8.939h2.491l.257 2.564h.11c1.686-1.685 3.517-3.005 5.972-3.005 3.737 0 5.423 2.419 5.423 6.963v11.283h-3.005v-10.88c0-3.335-1.025-4.763-3.37-4.763-1.832 0-3.078.952-4.873 2.747v12.896h-3.005v-17.805M28.936.132C11.088.132 0 12.377 0 32.086c0 19.755 11.359 32.519 28.936 32.519 17.578 0 28.937-12.764 28.937-32.519C57.873 12.377 46.784.132 28.936.132m0 49.609c-7.049 0-11.429-6.764-11.429-17.655 0-10.699 4.272-17.088 11.429-17.088s11.431 6.389 11.431 17.088c0 10.891-4.38 17.655-11.431 17.655m61.676 14.865c17.425 0 25.54-9.913 25.54-31.199V1.265H99.589v34.028c0 10.262-2.601 14.448-8.977 14.448-6.325 0-8.79-4.051-8.79-14.448V1.265H64.694v32.142c0 20.994 8.477 31.199 25.918 31.199m52.133-21.691h5.495l10.562 20.56h19.159l-13.454-24.044c6.373-3.616 9.738-9.797 9.738-17.908 0-13.253-8.636-20.258-24.974-20.258h-23.655v62.21h17.129v-20.56zm0-27.918h5.394c6.644 0 9.355 1.891 9.355 6.526 0 6.329-5.088 7.658-9.355 7.658h-5.394V14.997zm75.918 29.049h6.149c18.413 0 24.974-11.343 24.974-21.957 0-9.501-4.398-20.825-25.351-20.825h-22.902v62.211h17.13V44.046zm0-29.048h5.016c6.384 0 9.355 2.252 9.355 7.091 0 5.456-3.02 8.222-8.977 8.222h-5.394V14.998zm42.345 48.476l3.018-13.014h16.443l3.018 13.014h18.138l-18.95-62.21h-20.289l-18.949 62.21h17.571zm16.321-26.467h-10.163l.899-3.676c1.307-5.062 2.629-11.328 3.795-16.857l.311-1.467c.594 2.467 1.192 5.136 1.773 7.728.814 3.629 1.657 7.383 2.485 10.591l.9 3.681zm30.396 26.467h17.129V15.752h16.221V1.264h-49.573v14.488h16.223v47.722m90.767-23.68v23.68h-18.034l-.003-24.332H363.52v24.332h-17.129V1.264h17.129v22.823h16.935V1.76c0-.213.148-.435.356-.481.205-.045.418.022.508.214l17.173 38.301M105.059 67.806c-17.848 0-28.936 12.244-28.936 31.953 0 19.756 11.358 32.521 28.936 32.521s28.937-12.765 28.937-32.521c0-19.709-11.089-31.953-28.937-31.953m0 49.609c-7.05 0-11.429-6.764-11.429-17.656 0-10.699 4.272-17.088 11.429-17.088s11.429 6.389 11.429 17.088c0 10.892-4.38 17.656-11.429 17.656m84.764-28.219c0-13.253-8.636-20.259-24.975-20.259h-23.654v62.211h17.129v-20.56h5.494l10.563 20.56h19.159l-13.454-24.044c6.373-3.615 9.738-9.796 9.738-17.908m-31.5-6.525h5.393c6.645 0 9.355 1.89 9.355 6.525 0 6.329-5.087 7.658-9.355 7.658h-5.393V82.671m94.021-13.733l-3.447 27.19c-.264 2.501-.546 5.046-.83 7.62-.352 3.208-.711 6.459-1.049 9.717l-.243-1.396c-.926-5.344-1.884-10.868-2.832-15.99l-5.924-27.141h-14.312l-5.929 27.158c-.743 4.146-1.485 8.372-2.227 12.601l-.843 4.79c-.272-2.58-.557-5.16-.842-7.741-.354-3.206-.707-6.412-1.038-9.627l-3.446-27.181h-17.538l10.91 62.21h20.941l4.594-24.698c.764-3.817 1.333-7.814 1.884-11.681l.109-.765c.61 4.596 1.288 8.777 2.023 12.444l4.787 24.7h21.317l10.337-62.21h-16.402m31.37 0l-18.949 62.21h17.571l3.018-13.016h16.443l3.018 13.016h18.138l-18.949-62.21h-20.29zm14.942 35.743h-10.162l.9-3.676c1.307-5.063 2.628-11.328 3.794-16.857l.311-1.468c.594 2.468 1.191 5.136 1.772 7.728.816 3.631 1.658 7.384 2.485 10.592l.9 3.681zm74.875-15.485c0-13.253-8.635-20.259-24.974-20.259h-23.656v62.211h17.13v-20.56h5.495l10.562 20.56h19.159l-13.453-24.044c6.372-3.613 9.737-9.796 9.737-17.908m-31.5-6.525h5.394c6.644 0 9.354 1.89 9.354 6.525 0 6.329-5.087 7.658-9.354 7.658h-5.394V82.671m58.016-13.733h-18.562v62.21h19.505c19.997 0 31.01-11.147 31.01-31.388 0-20.164-11.049-30.822-31.953-30.822m-1.433 13.922h.489c7.611 0 15.39 2.008 15.39 16.9 0 12.079-4.746 17.465-15.39 17.465h-.489V82.86m-367.04 9.941l17.128 38.074a.453.453 0 0 0 .868-.184v-21.984l20.147-.006V94.212H55.073v.001H49.57V83.425h23.539V68.937H31.535l.039 23.864" fill="#412C6E"/></g></svg>