<?xml version="1.0" standalone="no"?>
<!DOCTYPE svg PUBLIC "-//W3C//DTD SVG 20010904//EN"
 "http://www.w3.org/TR/2001/REC-SVG-20010904/DTD/svg10.dtd">
<svg version="1.0" xmlns="http://www.w3.org/2000/svg"
 width="260.000000pt" height="260.000000pt" viewBox="0 0 260.000000 260.000000"
 preserveAspectRatio="xMidYMid meet">
<metadata>
Created by potrace 1.11, written by Peter Selinger 2001-2013
</metadata>
<g transform="translate(0.000000,260.000000) scale(0.100000,-0.100000)"
fill="#000000" stroke="none">
<path d="M0 1300 l0 -1300 1300 0 1300 0 0 1300 0 1300 -1300 0 -1300 0 0
-1300z m673 743 c18 -17 63 -18 601 -21 568 -3 656 1 656 28 0 6 9 10 20 10
24 0 26 -7 40 -175 6 -71 13 -147 16 -167 5 -33 3 -38 -14 -38 -16 0 -23 10
-31 53 -21 99 -42 145 -77 177 l-35 30 -230 0 -229 0 2 -634 c3 -626 3 -635
24 -663 30 -41 67 -55 160 -61 73 -4 84 -7 84 -23 0 -18 -16 -19 -365 -19
-349 0 -365 1 -365 19 0 16 11 19 91 23 102 6 132 21 161 79 17 31 18 84 18
657 l0 622 -229 0 -229 0 -30 -25 c-37 -31 -58 -75 -78 -164 -13 -58 -20 -71
-36 -71 -16 0 -18 5 -14 33 3 17 10 86 16 152 15 174 19 195 38 195 8 0 24 -8
35 -17z"/>
</g>
</svg>
