<?xml version="1.0" encoding="UTF-8"?>
<svg width="16px" height="15px" viewBox="0 0 16 15" version="1.1" xmlns="http://www.w3.org/2000/svg" xmlns:xlink="http://www.w3.org/1999/xlink">
    <!-- Generator: Sketch 51.1 (57501) - http://www.bohemiancoding.com/sketch -->
    <title>Shape</title>
    <desc>Created with Sketch.</desc>
    <defs></defs>
    <g id="Homepage-–-RD-4-+-Mobes--✅" stroke="none" stroke-width="1" fill-rule="evenodd">
        <g id="Mobile" transform="translate(-172.000000, -4034.000000)" fill-rule="nonzero">
            <g id="Footer" transform="translate(0.000000, 3795.000000)">
                <g id="SOCIAL" transform="translate(100.000000, 239.000000)">
                    <g id="facebook" transform="translate(72.391304, 0.000000)">
                        <path d="M12.9598588,0 L2.0183654,0 C0.903675154,0 0,0.903631881 0,2.01835059 L0,12.959837 C0,14.0745557 0.903638513,14.9781876 2.0183654,14.9781876 L7.41465775,14.9781876 L7.42385463,9.6257937 L6.03329485,9.6257937 C5.8525818,9.6257937 5.70590818,9.47967076 5.705212,9.29895904 L5.69854335,7.57366043 C5.69784717,7.39195941 5.84496049,7.24429757 6.02666284,7.24429757 L7.41469439,7.24429757 L7.41469439,5.57722096 C7.41469439,3.64259427 8.59625433,2.58917538 10.3220786,2.58917538 L11.7382504,2.58917538 C11.9194397,2.58917538 12.0663699,2.73606778 12.0663699,2.91729246 L12.0663699,4.37207311 C12.0663699,4.55322452 11.9195497,4.70008027 11.7384336,4.70019019 L10.8693474,4.70059324 C9.93079013,4.70059324 9.74905114,5.14658331 9.74905114,5.80109537 L9.74905114,7.24433421 L11.8113856,7.24433421 C12.0078909,7.24433421 12.1603538,7.4159224 12.1371968,7.61107054 L11.9327038,9.33636915 C11.9131375,9.50147195 11.7731325,9.62586698 11.6068926,9.62586698 L9.75824801,9.62586698 L9.74905114,14.9782609 L12.9599321,14.9782609 C14.0746224,14.9782609 14.9782609,14.074629 14.9782609,12.9599469 L14.9782609,2.01835059 C14.9782242,0.903631881 14.0745857,0 12.9598588,0 Z" id="Shape"></path>
                    </g>
                </g>
            </g>
        </g>
    </g>
</svg>