<?xml version="1.0" encoding="UTF-8"?>
<svg width="16px" height="15px" viewBox="0 0 16 15" version="1.1" xmlns="http://www.w3.org/2000/svg" xmlns:xlink="http://www.w3.org/1999/xlink">
    <!-- Generator: Sketch 51.1 (57501) - http://www.bohemiancoding.com/sketch -->
    <title>instagram-2</title>
    <desc>Created with Sketch.</desc>
    <defs></defs>
    <g id="Homepage-–-RD-4-+-Mobes--✅" stroke="none" stroke-width="1" fill="none" fill-rule="evenodd">
        <g id="Mobile" transform="translate(-204.000000, -4034.000000)" fill="#FFFFFF" fill-rule="nonzero">
            <g id="Footer" transform="translate(0.000000, 3795.000000)">
                <g id="SOCIAL" transform="translate(100.000000, 239.000000)">
                    <g id="instagram-2" transform="translate(104.347826, 0.000000)">
                        <path d="M10.3125,0 L4.6875,0 C2.0990625,0 0,2.0990625 0,4.6875 L0,10.3125 C0,12.9009375 2.0990625,15 4.6875,15 L10.3125,15 C12.9009375,15 15,12.9009375 15,10.3125 L15,4.6875 C15,2.0990625 12.9009375,0 10.3125,0 Z M13.59375,10.3125 C13.59375,12.121875 12.121875,13.59375 10.3125,13.59375 L4.6875,13.59375 C2.878125,13.59375 1.40625,12.121875 1.40625,10.3125 L1.40625,4.6875 C1.40625,2.878125 2.878125,1.40625 4.6875,1.40625 L10.3125,1.40625 C12.121875,1.40625 13.59375,2.878125 13.59375,4.6875 L13.59375,10.3125 Z" id="Shape"></path>
                        <path d="M7.35,3.6 C5.2790625,3.6 3.6,5.2790625 3.6,7.35 C3.6,9.4209375 5.2790625,11.1 7.35,11.1 C9.4209375,11.1 11.1,9.4209375 11.1,7.35 C11.1,5.2790625 9.4209375,3.6 7.35,3.6 Z M7.35,9.69375 C6.058125,9.69375 5.00625,8.641875 5.00625,7.35 C5.00625,6.0571875 6.058125,5.00625 7.35,5.00625 C8.641875,5.00625 9.69375,6.0571875 9.69375,7.35 C9.69375,8.641875 8.641875,9.69375 7.35,9.69375 Z" id="Shape"></path>
                        <circle id="Oval" cx="11.55" cy="3.45" r="1"></circle>
                    </g>
                </g>
            </g>
        </g>
    </g>
</svg>