<?xml version="1.0" encoding="UTF-8"?>
<svg width="101px" height="45px" viewBox="0 0 101 45" version="1.1" xmlns="http://www.w3.org/2000/svg" xmlns:xlink="http://www.w3.org/1999/xlink">
    <!-- Generator: Sketch 51.1 (57501) - http://www.bohemiancoding.com/sketch -->
    <title>logo</title>
    <desc>Created with Sketch.</desc>
    <defs>
        <polygon id="path-1" points="0.115027778 0.102590674 5.60643519 0.102590674 5.60643519 7.9134715 0.115027778 7.9134715"></polygon>
        <polygon id="path-3" points="0.115027778 0.102590674 5.60643519 0.102590674 5.60643519 7.9134715 0.115027778 7.9134715"></polygon>
    </defs>
    <g id="Page-1" stroke="none" stroke-width="1" fill="none" fill-rule="evenodd">
        <g id="logo">
            <polyline id="Fill-1" fill="#FFFFFF" fill-rule="nonzero" points="16.8443218 38.0804922 15.1485972 38.0804922 15.1485972 37.4826684 19.2599051 37.4826684 19.2599051 38.0804922 17.5639468 38.0804922 17.5639468 43.0864508 16.8443218 43.0864508 16.8443218 38.0804922"></polyline>
            <path d="M19.9465648,37.0042228 L20.6488889,37.0042228 L20.6488889,38.6612953 L20.6231713,39.5155959 C21.0173519,39.1399741 21.4370162,38.8322021 22.0109861,38.8322021 C22.8846829,38.8322021 23.2786296,39.3959845 23.2786296,40.4552332 L23.2786296,43.0864508 L22.5763056,43.0864508 L22.5763056,40.5491969 C22.5763056,39.7720725 22.3364306,39.4386528 21.7881782,39.4386528 C21.3598634,39.4386528 21.0685532,39.6610881 20.6488889,40.0796114 L20.6488889,43.0864508 L19.9465648,43.0864508 L19.9465648,37.0042228" id="Fill-2" fill="#FFFFFF" fill-rule="nonzero"></path>
            <path d="M24.0422083,41.0190155 C24.0422083,39.6608549 24.9589236,38.8322021 25.9095394,38.8322021 C26.9716759,38.8322021 27.5713634,39.5923057 27.5713634,40.7800259 C27.5713634,40.9250518 27.5629468,41.0787047 27.5456458,41.1815285 L24.7358819,41.1815285 C24.7873171,42.0612435 25.3271528,42.6252591 26.1236968,42.6252591 C26.5178773,42.6252591 26.8517384,42.4970207 27.1601157,42.3004663 L27.4084074,42.7618912 C27.0488287,42.9922539 26.6036806,43.1888083 26.0381273,43.1888083 C24.9243218,43.1888083 24.0422083,42.3771762 24.0422083,41.0190155 M26.9546088,40.6772021 C26.9546088,39.8403886 26.5777292,39.3875907 25.9268403,39.3875907 C25.3439861,39.3875907 24.8130347,39.8571762 24.7276991,40.6772021 L26.9546088,40.6772021" id="Fill-3" fill="#FFFFFF" fill-rule="nonzero"></path>
            <path d="M29.5429676,40.2845596 C29.5429676,38.4819948 30.6051042,37.3800777 32.0354699,37.3800777 C32.7207269,37.3800777 33.251912,37.7046373 33.5775903,38.0718653 L33.1920602,38.5332902 C32.8923333,38.2171244 32.5238704,38.0037824 32.0441204,38.0037824 C30.9822176,38.0037824 30.2798935,38.8751036 30.2798935,40.2675389 C30.2798935,41.6769948 30.9562662,42.5653368 32.0186366,42.5653368 C32.5582384,42.5653368 32.9606019,42.326114 33.3206481,41.9334715 L33.7148287,42.3774093 C33.2689792,42.8901295 32.7207269,43.1890415 31.9926852,43.1890415 C30.5882708,43.1890415 29.5429676,42.112772 29.5429676,40.2845596" id="Fill-4" fill="#FFFFFF" fill-rule="nonzero"></path>
            <path d="M34.1784468,42.0099482 C34.1784468,41.1045855 34.9579236,40.6517876 36.7312685,40.4552332 C36.7312685,39.9259585 36.5598958,39.4132383 35.8746389,39.4132383 C35.3948889,39.4132383 34.9579236,39.6352073 34.632713,39.8574093 L34.3584699,39.3705699 C34.7437662,39.122487 35.3263866,38.8322021 35.9943426,38.8322021 C37.0139282,38.8322021 37.4422431,39.5069689 37.4422431,40.5408031 L37.4422431,43.0862176 L36.8598565,43.0862176 L36.799537,42.5907513 L36.7740532,42.5907513 C36.3798727,42.915544 35.9174236,43.1890415 35.3948889,43.1890415 C34.7012153,43.1890415 34.1784468,42.7532642 34.1784468,42.0099482 M36.7312685,42.0698705 L36.7312685,40.916658 C35.3434537,41.0873316 34.8637037,41.4291451 34.8637037,41.958886 C34.8637037,42.4284715 35.1893819,42.6252591 35.6003958,42.6252591 C36.0032269,42.6252591 36.3284375,42.4284715 36.7312685,42.0698705" id="Fill-5" fill="#FFFFFF" fill-rule="nonzero"></path>
            <path d="M38.4968981,38.9347927 L39.0792847,38.9347927 L39.1396042,39.5326166 L39.165088,39.5326166 C39.5249005,39.1397409 39.9618657,38.8319689 40.4586829,38.8319689 C41.0925046,38.8319689 41.43525,39.1313472 41.6063889,39.6268135 C42.0431204,39.1569948 42.4714352,38.8319689 42.9771366,38.8319689 C43.8335324,38.8319689 44.2447801,39.3959845 44.2447801,40.4554663 L44.2447801,43.0862176 L43.5422222,43.0862176 L43.5422222,40.5494301 C43.5422222,39.7718394 43.2936968,39.438886 42.7713958,39.438886 C42.4457176,39.438886 42.1118565,39.652228 41.7265602,40.0793782 L41.7265602,43.0862176 L41.0240023,43.0862176 L41.0240023,40.5494301 C41.0240023,39.7718394 40.7754769,39.438886 40.2445255,39.438886 C39.9361481,39.438886 39.5847523,39.652228 39.199456,40.0793782 L39.199456,43.0862176 L38.4968981,43.0862176 L38.4968981,38.9347927" id="Fill-6" fill="#FFFFFF" fill-rule="nonzero"></path>
            <path d="M45.3431551,38.9347927 L45.9255417,38.9347927 L45.9856273,39.4132383 L46.0113449,39.4132383 C46.3882245,39.0970725 46.8506736,38.8319689 47.3390741,38.8319689 C48.4098611,38.8319689 48.9835972,39.6608549 48.9835972,40.9506995 C48.9835972,42.3603886 48.1358519,43.1890415 47.1847685,43.1890415 C46.7994722,43.1890415 46.4139421,43.0095078 46.0286458,42.7105959 L46.0454792,43.4368912 L46.0454792,44.837487 L45.3431551,44.837487 L45.3431551,38.9347927 Z M48.2553218,40.9506995 C48.2553218,40.0367098 47.9471782,39.4216321 47.1588171,39.4216321 C46.8078889,39.4216321 46.4567269,39.6179534 46.0454792,39.9856477 L46.0454792,42.1638342 C46.4223588,42.48 46.7908218,42.5993782 47.064831,42.5993782 C47.7503218,42.5993782 48.2553218,41.9761399 48.2553218,40.9506995 Z" id="Fill-7" fill="#FFFFFF" fill-rule="nonzero"></path>
            <path d="M49.4645162,42.0099482 C49.4645162,41.1045855 50.2439931,40.6517876 52.0171042,40.4552332 C52.0171042,39.9259585 51.8461991,39.4132383 51.1607083,39.4132383 C50.6809583,39.4132383 50.2439931,39.6352073 49.9187824,39.8574093 L49.6445394,39.3705699 C50.0296019,39.122487 50.612456,38.8322021 51.280412,38.8322021 C52.2999977,38.8322021 52.7280787,39.5069689 52.7280787,40.5408031 L52.7280787,43.0862176 L52.1456921,43.0862176 L52.0856065,42.5907513 L52.0601227,42.5907513 C51.6659421,42.915544 51.2034931,43.1890415 50.6809583,43.1890415 C49.9870509,43.1890415 49.4645162,42.7532642 49.4645162,42.0099482 M52.0171042,42.0698705 L52.0171042,40.916658 C50.6297569,41.0873316 50.1495394,41.4291451 50.1495394,41.958886 C50.1495394,42.4284715 50.4756852,42.6252591 50.8864653,42.6252591 C51.2892963,42.6252591 51.6147407,42.4284715 52.0171042,42.0698705" id="Fill-8" fill="#FFFFFF" fill-rule="nonzero"></path>
            <g id="Group-12" transform="translate(53.539352, 37.072539)">
                <g id="Fill-9-Clipped">
                    <mask id="mask-2" fill="white">
                        <use xlink:href="#path-1"></use>
                    </mask>
                    <g id="path-1"></g>
                    <path d="M0.115027778,0.55515544 C0.115027778,0.281658031 0.329418981,0.102590674 0.603662037,0.102590674 C0.877671296,0.102590674 1.09159491,0.281658031 1.09159491,0.55515544 C1.09159491,0.820025907 0.877671296,1.00795337 0.603662037,1.00795337 C0.329418981,1.00795337 0.115027778,0.820025907 0.115027778,0.55515544 Z M0.243849537,6.01391192 L0.946173611,6.01391192 L0.946173611,1.86248705 L0.243849537,1.86248705 L0.243849537,6.01391192 Z" id="Fill-9" fill="#FFFFFF" fill-rule="nonzero" mask="url(#mask-2)"></path>
                </g>
                <g id="Fill-11-Clipped">
                    <mask id="mask-4" fill="white">
                        <use xlink:href="#path-3"></use>
                    </mask>
                    <g id="path-1"></g>
                    <path d="M1.77755324,6.80852332 C1.77755324,6.45831606 2.00877778,6.12512953 2.38565741,5.86865285 L2.38565741,5.8346114 C2.18015046,5.70637306 2.01742824,5.48440415 2.01742824,5.1596114 C2.01742824,4.80917098 2.25683565,4.5361399 2.47122685,4.39064767 L2.47122685,4.35660622 C2.1969838,4.13440415 1.9318588,3.73313472 1.9318588,3.23766839 C1.9318588,2.33207254 2.6510162,1.75989637 3.49922917,1.75989637 C3.7304537,1.75989637 3.93619444,1.80233161 4.0902662,1.86225389 L5.53816667,1.86225389 L5.53816667,2.4003886 L4.68130324,2.4003886 C4.87815972,2.58831606 5.02358102,2.9042487 5.02358102,3.25445596 C5.02358102,4.14303109 4.34720833,4.69841969 3.49922917,4.69841969 C3.29372222,4.69841969 3.06249769,4.64689119 2.87405787,4.55292746 C2.72840278,4.6811658 2.60846528,4.81803109 2.60846528,5.04862694 C2.60846528,5.31349741 2.77960417,5.50119171 3.34515741,5.50119171 L4.15011806,5.50119171 C5.11803472,5.50119171 5.60643519,5.80010363 5.60643519,6.49235751 C5.60643519,7.26108808 4.79282407,7.92722798 3.49922917,7.92722798 C2.47987731,7.92722798 1.77755324,7.52595855 1.77755324,6.80852332 M4.92141204,6.59471503 C4.92141204,6.21023316 4.62145139,6.08199482 4.08161574,6.08199482 L3.36222454,6.08199482 C3.19926852,6.08199482 3.00264583,6.06520725 2.82238889,6.01367876 C2.52266204,6.22748705 2.39407407,6.47510363 2.39407407,6.71432642 C2.39407407,7.15873057 2.84834028,7.4403886 3.60186574,7.4403886 C4.39864352,7.4403886 4.92141204,7.03049223 4.92141204,6.59471503 M4.38134259,3.23766839 C4.38134259,2.63121762 3.98739583,2.27261658 3.49922917,2.27261658 C3.0110625,2.27261658 2.61664815,2.63121762 2.61664815,3.23766839 C2.61664815,3.84411917 3.01947917,4.22836788 3.49922917,4.22836788 C3.97921296,4.22836788 4.38134259,3.84411917 4.38134259,3.23766839" id="Fill-11" fill="#FFFFFF" fill-rule="nonzero" mask="url(#mask-4)"></path>
                </g>
            </g>
            <path d="M59.6949745,38.9347927 L60.2773611,38.9347927 L60.3376806,39.5326166 L60.3633981,39.5326166 C60.7573449,39.1397409 61.1854259,38.8319689 61.7593958,38.8319689 C62.6330926,38.8319689 63.0272731,39.3959845 63.0272731,40.4554663 L63.0272731,43.0862176 L62.3247153,43.0862176 L62.3247153,40.5494301 C62.3247153,39.7718394 62.0850741,39.438886 61.5368218,39.438886 C61.1085069,39.438886 60.8171968,39.6608549 60.3975324,40.0793782 L60.3975324,43.0862176 L59.6949745,43.0862176 L59.6949745,38.9347927" id="Fill-13" fill="#FFFFFF" fill-rule="nonzero"></path>
            <path d="M65.701669,39.5072021 L65.1365833,39.5072021 L65.1365833,38.977228 L65.701669,38.9350259 L65.701669,38.2770466 C65.701669,37.4313731 66.0869653,36.9016321 66.9181111,36.9016321 C67.1750532,36.9016321 67.4233449,36.9613212 67.6115509,37.0382642 L67.4574792,37.5768653 C67.3034074,37.5083161 67.140919,37.4740415 66.9866134,37.4740415 C66.5926667,37.4740415 66.4037593,37.7473057 66.4037593,38.2770466 L66.4037593,38.9350259 L67.2863403,38.9350259 L67.2863403,39.5072021 L66.4037593,39.5072021 L66.4037593,43.0864508 L65.701669,43.0864508 L65.701669,39.5072021" id="Fill-14" fill="#FFFFFF" fill-rule="nonzero"></path>
            <path d="M67.432463,41.0190155 C67.432463,39.6268135 68.3407616,38.8322021 69.3598796,38.8322021 C70.3789977,38.8322021 71.2870625,39.6268135 71.2870625,41.0190155 C71.2870625,42.3946632 70.3789977,43.1888083 69.3598796,43.1888083 C68.3407616,43.1888083 67.432463,42.3946632 67.432463,41.0190155 M70.5590208,41.0190155 C70.5590208,40.0625907 70.0792708,39.4132383 69.3598796,39.4132383 C68.6489051,39.4132383 68.1605046,40.0625907 68.1605046,41.0190155 C68.1605046,41.967513 68.6489051,42.6080052 69.3598796,42.6080052 C70.0792708,42.6080052 70.5590208,41.967513 70.5590208,41.0190155" id="Fill-15" fill="#FFFFFF" fill-rule="nonzero"></path>
            <path d="M72.127794,38.9347927 L72.7101806,38.9347927 L72.7705,39.6862694 L72.7959838,39.6862694 C73.0786435,39.1653886 73.5069583,38.8319689 73.9780579,38.8319689 C74.1578472,38.8319689 74.2864352,38.8580829 74.4234398,38.9180052 L74.2864352,39.5326166 C74.1491968,39.4901813 74.0552106,39.4645337 73.883838,39.4645337 C73.5326759,39.4645337 73.1130116,39.720544 72.8303519,40.4209585 L72.8303519,43.0862176 L72.127794,43.0862176 L72.127794,38.9347927" id="Fill-16" fill="#FFFFFF" fill-rule="nonzero"></path>
            <polyline id="Fill-17" fill="#FFFFFF" fill-rule="nonzero" points="76.3690926 37.4824352 77.0800671 37.4824352 77.0800671 40.2929534 77.1057847 40.2929534 79.4442153 37.4824352 80.2491759 37.4824352 78.4931319 39.6179534 80.523419 43.0862176 79.726875 43.0862176 78.0479838 40.173342 77.0800671 41.3095337 77.0800671 43.0862176 76.3690926 43.0862176 76.3690926 37.4824352"></polyline>
            <path d="M80.6361088,41.0190155 C80.6361088,39.6608549 81.5528241,38.8322021 82.5036736,38.8322021 C83.5658102,38.8322021 84.1654977,39.5923057 84.1654977,40.7800259 C84.1654977,40.9250518 84.1568472,41.0787047 84.1397801,41.1815285 L81.3300162,41.1815285 C81.3816852,42.0612435 81.921287,42.6252591 82.717831,42.6252591 C83.1117778,42.6252591 83.4458727,42.4970207 83.75425,42.3004663 L84.0025417,42.7618912 C83.642963,42.9922539 83.197581,43.1888083 82.6320278,43.1888083 C81.518456,43.1888083 80.6361088,42.3771762 80.6361088,41.0190155 M83.5485093,40.6772021 C83.5485093,39.8403886 83.1716296,39.3875907 82.5207407,39.3875907 C81.9381204,39.3875907 81.407169,39.8571762 81.3213657,40.6772021 L83.5485093,40.6772021" id="Fill-18" fill="#FFFFFF" fill-rule="nonzero"></path>
            <path d="M84.9372593,38.9347927 L85.5196458,38.9347927 L85.5797315,39.5326166 L85.6054491,39.5326166 C85.9996296,39.1397409 86.4277106,38.8319689 87.0016806,38.8319689 C87.8753773,38.8319689 88.2693241,39.3959845 88.2693241,40.4554663 L88.2693241,43.0862176 L87.567,43.0862176 L87.567,40.5494301 C87.567,39.7718394 87.3273588,39.438886 86.7791065,39.438886 C86.3507917,39.438886 86.0594815,39.6608549 85.6398171,40.0793782 L85.6398171,43.0862176 L84.9372593,43.0862176 L84.9372593,38.9347927" id="Fill-19" fill="#FFFFFF" fill-rule="nonzero"></path>
            <path d="M88.9473333,44.7861917 L89.084338,44.2310363 C89.170375,44.2566839 89.2987292,44.2907254 89.4013657,44.2907254 C89.8724653,44.2907254 90.1724259,43.9151036 90.3435648,43.4026166 L90.4380185,43.0950777 L88.7677778,38.9350259 L89.4958194,38.9350259 L90.3435648,41.2325907 C90.4723866,41.5914249 90.6178079,42.018342 90.7463958,42.403057 L90.7805301,42.403057 C90.9004676,42.0269689 91.0204051,41.5998187 91.1316921,41.2325907 L91.8770347,38.9350259 L92.5620579,38.9350259 L90.9949213,43.4280311 C90.7033773,44.2482902 90.2752963,44.8717617 89.4359676,44.8717617 C89.2470602,44.8717617 89.084338,44.8377202 88.9473333,44.7861917" id="Fill-20" fill="#FFFFFF" fill-rule="nonzero"></path>
            <path d="M92.7692014,41.0190155 C92.7692014,39.6268135 93.6767986,38.8322021 94.6963843,38.8322021 C95.7155023,38.8322021 96.6235671,39.6268135 96.6235671,41.0190155 C96.6235671,42.3946632 95.7155023,43.1888083 94.6963843,43.1888083 C93.6767986,43.1888083 92.7692014,42.3946632 92.7692014,41.0190155 M95.8955255,41.0190155 C95.8955255,40.0625907 95.4157755,39.4132383 94.6963843,39.4132383 C93.9854097,39.4132383 93.4970093,40.0625907 93.4970093,41.0190155 C93.4970093,41.967513 93.9854097,42.6080052 94.6963843,42.6080052 C95.4157755,42.6080052 95.8955255,41.967513 95.8955255,41.0190155" id="Fill-21" fill="#FFFFFF" fill-rule="nonzero"></path>
            <g id="Group-25" fill="#FFFFFF" fill-rule="nonzero">
                <path d="M97.4642986,38.9347927 L98.0466852,38.9347927 L98.1067708,39.5326166 L98.1324884,39.5326166 C98.526669,39.1397409 98.95475,38.8319689 99.5287199,38.8319689 C100.402417,38.8319689 100.796597,39.3959845 100.796597,40.4554663 L100.796597,43.0862176 L100.094039,43.0862176 L100.094039,40.5494301 C100.094039,39.7718394 99.8543981,39.438886 99.3061458,39.438886 C98.877831,39.438886 98.5865208,39.6608549 98.1668565,40.0793782 L98.1668565,43.0862176 L97.4642986,43.0862176 L97.4642986,38.9347927" id="Fill-22"></path>
                <path d="M6.76512963,0.0307772021 C2.59233333,0.0307772021 0,2.88582902 0,7.48119171 C0,12.0872798 2.65569213,15.063342 6.76512963,15.063342 C10.8748009,15.063342 13.5304931,12.0872798 13.5304931,7.48119171 C13.5304931,2.88582902 10.9379259,0.0307772021 6.76512963,0.0307772021 M6.76512963,11.5976425 C5.11709954,11.5976425 4.09307176,10.020544 4.09307176,7.48119171 C4.09307176,4.98660622 5.09184954,3.49694301 6.76512963,3.49694301 C8.43840972,3.49694301 9.43765509,4.98660622 9.43765509,7.48119171 C9.43765509,10.020544 8.41362731,11.5976425 6.76512963,11.5976425" id="Fill-24"></path>
            </g>
            <path d="M21.18475,15.0635751 C25.2586505,15.0635751 27.1559074,12.7522539 27.1559074,7.78919689 L27.1559074,0.294948187 L23.2835394,0.294948187 L23.2835394,8.22893782 C23.2835394,10.6216321 22.6754352,11.5976425 21.18475,11.5976425 C19.7059884,11.5976425 19.1296806,10.6531088 19.1296806,8.22893782 L19.1296806,0.294948187 L15.1252176,0.294948187 L15.1252176,7.78919689 C15.1252176,12.684171 17.1071088,15.0635751 21.18475,15.0635751" id="Fill-26" fill="#FFFFFF" fill-rule="nonzero"></path>
            <path d="M33.3732523,10.0060881 L34.657963,10.0060881 L37.1273194,14.7998705 L41.6066227,14.7998705 L38.4611273,9.19375648 C39.9511111,8.35064767 40.7378356,6.90948187 40.7378356,5.01831606 C40.7378356,1.92823834 38.7187708,0.294948187 34.8990069,0.294948187 L29.3685556,0.294948187 L29.3685556,14.7998705 L33.3732523,14.7998705 L33.3732523,10.0060881 Z M33.3732523,3.49670984 L34.6343495,3.49670984 C36.1876921,3.49670984 36.8215139,3.93761658 36.8215139,5.01831606 C36.8215139,6.49398964 35.6319583,6.8038601 34.6343495,6.8038601 L33.3732523,6.8038601 L33.3732523,3.49670984 Z" id="Fill-27" fill="#FFFFFF" fill-rule="nonzero"></path>
            <path d="M51.1225995,10.2697927 L52.560213,10.2697927 C56.8651042,10.2697927 58.3990417,7.62505181 58.3990417,5.15028497 C58.3990417,2.93502591 57.3708056,0.294715026 52.4720718,0.294715026 L47.117669,0.294715026 L47.117669,14.7998705 L51.1225995,14.7998705 L51.1225995,10.2697927 Z M51.1225995,3.49694301 L52.2953218,3.49694301 C53.7878773,3.49694301 54.4824861,4.02202073 54.4824861,5.15028497 C54.4824861,6.42240933 53.7764213,7.06733161 52.3836968,7.06733161 L51.1225995,7.06733161 L51.1225995,3.49694301 Z" id="Fill-28" fill="#FFFFFF" fill-rule="nonzero"></path>
            <path d="M61.0227037,14.7996373 L61.7283009,11.765285 L65.5726134,11.765285 L66.2782106,14.7996373 L70.5188079,14.7996373 L66.0883681,0.294715026 L61.344875,0.294715026 L56.914669,14.7996373 L61.0227037,14.7996373 Z M64.8384931,8.62857513 L62.4624213,8.62857513 L62.6726042,7.77147668 C62.9781759,6.59121762 63.2872546,5.13023316 63.5598611,3.84108808 L63.6325718,3.49904145 C63.7714468,4.0742487 63.9112569,4.6965544 64.0470926,5.30090674 C64.2374028,6.14704663 64.4344931,7.02233161 64.6280764,7.77031088 L64.8384931,8.62857513 Z" id="Fill-29" fill="#FFFFFF" fill-rule="nonzero"></path>
            <polyline id="Fill-30" fill="#FFFFFF" fill-rule="nonzero" points="71.9449653 14.7996373 75.949662 14.7996373 75.949662 3.67274611 79.7420718 3.67274611 79.7420718 0.294715026 68.152088 0.294715026 68.152088 3.67274611 71.9449653 3.67274611 71.9449653 14.7996373"></polyline>
            <path d="M93.1659537,9.27839378 L93.1659537,14.7996373 L88.9496713,14.7996373 L88.9489699,9.12637306 L84.9896296,9.12637306 L84.9896296,14.7996373 L80.9849329,14.7996373 L80.9849329,0.294715026 L84.9896296,0.294715026 L84.9896296,5.6161399 L88.9489699,5.6161399 L88.9489699,0.410362694 C88.9489699,0.360699482 88.9835718,0.308937824 89.0322014,0.298212435 C89.0801296,0.287720207 89.1299282,0.303341969 89.1509699,0.348108808 L93.1659537,9.27839378" id="Fill-31" fill="#FFFFFF" fill-rule="nonzero"></path>
            <path d="M24.5624051,15.8096891 C20.3896088,15.8096891 17.7972755,18.6645078 17.7972755,23.2598705 C17.7972755,27.8661917 20.4527338,30.842487 24.5624051,30.842487 C28.6720764,30.842487 31.3277685,27.8661917 31.3277685,23.2598705 C31.3277685,18.6645078 28.7352014,15.8096891 24.5624051,15.8096891 M24.5624051,27.3765544 C22.9141412,27.3765544 21.8903472,25.799456 21.8903472,23.2598705 C21.8903472,20.765285 22.889125,19.2756218 24.5624051,19.2756218 C26.2356852,19.2756218 27.234463,20.765285 27.234463,23.2598705 C27.234463,25.799456 26.2104352,27.3765544 24.5624051,27.3765544" id="Fill-32" fill="#FFFFFF" fill-rule="nonzero"></path>
            <path d="M44.3799144,20.7969948 C44.3799144,17.7069171 42.3608495,16.0733938 38.5408519,16.0733938 L33.0106343,16.0733938 L33.0106343,30.5785492 L37.015331,30.5785492 L37.015331,25.7847668 L38.2998079,25.7847668 L40.7693981,30.5785492 L45.2487014,30.5785492 L42.103206,24.9724352 C43.5931898,24.1295596 44.3799144,22.6883938 44.3799144,20.7969948 M37.015331,19.2756218 L38.2761944,19.2756218 C39.8297708,19.2756218 40.4633588,19.7162953 40.4633588,20.7969948 C40.4633588,22.2726684 39.274037,22.5825389 38.2761944,22.5825389 L37.015331,22.5825389 L37.015331,19.2756218" id="Fill-33" fill="#FFFFFF" fill-rule="nonzero"></path>
            <path d="M58.9970926,16.0736269 L58.1911968,22.4132642 C58.1294745,22.996399 58.063544,23.5897927 57.9971458,24.1899482 C57.9148495,24.9379275 57.8309167,25.6959326 57.7518935,26.4555699 L57.695081,26.1300777 C57.4785856,24.8840674 57.2546088,23.5960881 57.0329699,22.4018394 L55.6479606,16.0736269 L52.3018681,16.0736269 L50.9156898,22.4058031 C50.7419792,23.372487 50.5685023,24.3578238 50.3950255,25.3438601 L50.1979352,26.4606995 C50.1343426,25.8591451 50.0677106,25.2575907 50.0010787,24.6558031 C49.9183148,23.9082902 49.8357847,23.1607772 49.7583981,22.4111658 L48.9527361,16.0736269 L44.8524167,16.0736269 L47.4031343,30.5785492 L52.2990625,30.5785492 L53.3731227,24.8199482 C53.5517431,23.9299741 53.6847731,22.9980311 53.8135949,22.096399 L53.8390787,21.9180311 C53.9816944,22.9896373 54.1402083,23.9644819 54.3120486,24.8194819 L55.4312315,30.5785492 L60.4150671,30.5785492 L62.8318194,16.0736269 L58.9970926,16.0736269" id="Fill-34" fill="#FFFFFF" fill-rule="nonzero"></path>
            <path d="M66.3312824,16.0736269 L61.9010764,30.5785492 L66.0091111,30.5785492 L66.7147083,27.5437306 L70.5590208,27.5437306 L71.2646181,30.5785492 L75.5052153,30.5785492 L71.0750093,16.0736269 L66.3312824,16.0736269 Z M69.8246667,24.407487 L67.4488287,24.407487 L67.6592454,23.5503886 C67.9648171,22.3698964 68.273662,20.9091451 68.5462685,19.62 L68.6189792,19.2777202 C68.7578542,19.8531606 68.8974306,20.4752332 69.0332662,21.0795855 C69.224044,21.9261917 69.4209005,22.8012435 69.61425,23.5492228 L69.8246667,24.407487 Z" id="Fill-35" fill="#FFFFFF" fill-rule="nonzero"></path>
            <path d="M87.3301644,20.7969948 C87.3301644,17.7069171 85.3113333,16.0733938 81.4913356,16.0733938 L75.9606505,16.0733938 L75.9606505,30.5785492 L79.965581,30.5785492 L79.965581,25.7847668 L81.2502917,25.7847668 L83.7196481,30.5785492 L88.1989514,30.5785492 L85.0536898,24.9724352 C86.5434398,24.1300259 87.3301644,22.6883938 87.3301644,20.7969948 M79.965581,19.2756218 L81.2266782,19.2756218 C82.7800208,19.2756218 83.4136088,19.7162953 83.4136088,20.7969948 C83.4136088,22.2726684 82.224287,22.5825389 81.2266782,22.5825389 L79.965581,22.5825389 L79.965581,19.2756218" id="Fill-36" fill="#FFFFFF" fill-rule="nonzero"></path>
            <path d="M93.5295069,16.0736269 L89.1897801,16.0736269 L89.1897801,30.5785492 L93.7499769,30.5785492 C98.4252014,30.5785492 101,27.9795078 101,23.2601036 C101,18.5586528 98.4167847,16.0736269 93.5295069,16.0736269 M93.1944769,19.3196891 L93.3088032,19.3196891 C95.0882269,19.3196891 96.9069282,19.7878756 96.9069282,23.2601036 C96.9069282,26.0764508 95.797331,27.3322539 93.3088032,27.3322539 L93.1944769,27.3322539 L93.1944769,19.3196891" id="Fill-37" fill="#FFFFFF" fill-rule="nonzero"></path>
            <path d="M7.38188426,21.6375389 L11.3863472,30.5148964 C11.4038819,30.5538342 11.4417569,30.5778497 11.4833727,30.5778497 C11.4908542,30.5778497 11.4978681,30.5771503 11.5051157,30.5755181 C11.554213,30.5652591 11.5892824,30.5221244 11.5892824,30.4719948 L11.5892824,25.3461917 L16.2995764,25.3447927 L16.2995764,21.9665285 L12.8758634,21.9665285 L12.8758634,21.9667617 L11.5892824,21.9667617 L11.5892824,19.4514249 L17.0926134,19.4514249 L17.0926134,16.0733938 L7.3727662,16.0733938 L7.38188426,21.6375389" id="Fill-38" fill="#FFFFFF" fill-rule="nonzero"></path>
        </g>
    </g>
</svg>