<?xml version="1.0" encoding="UTF-8"?>
<svg width="428px" height="66px" viewBox="0 0 428 66" version="1.1" xmlns="http://www.w3.org/2000/svg" xmlns:xlink="http://www.w3.org/1999/xlink">
    <!-- Generator: Sketch 51.1 (57501) - http://www.bohemiancoding.com/sketch -->
    <title>kc_267u-2</title>
    <desc>Created with Sketch.</desc>
    <defs>
        <polygon id="path-1" points="0.06 0.125 427.212 0.125 427.212 64.94 0.06 64.94"></polygon>
    </defs>
    <g id="kc_267u-2" stroke="none" stroke-width="1" fill="none" fill-rule="evenodd">
        <path d="M277.763,34.726 C277.763,43.95 283.087,51 290.062,51 C295.987,51 299.735,46.2 299.735,38.625 C299.735,28.876 294.937,22.276 287.812,22.276 C281.812,22.276 277.763,27.301 277.763,34.726 Z M304.911,36.75 C304.911,45.75 297.862,52.575 288.562,52.575 C279.337,52.575 272.587,46.051 272.587,37.125 C272.587,27.9 279.712,20.852 289.087,20.852 C297.712,20.852 304.911,28.051 304.911,36.75 Z" id="Fill-1" fill="#ffffff"></path>
        <g id="Group-7" transform="translate(0.000000, 1.000000)">
            <mask id="mask-2" fill="white">
                <use xlink:href="#path-1"></use>
            </mask>
            <g id="Clip-3"></g>
            <path d="M358.11,30.426 C360.511,30.426 361.036,30.201 361.036,29.301 C361.036,25.401 357.062,21.502 353.161,21.502 C349.187,21.502 346.337,24.951 345.735,30.426 L358.11,30.426 Z M345.587,33.351 L345.587,33.876 C345.661,41.676 351.062,47.975 357.585,47.975 C360.511,47.975 362.536,47.15 366.21,44.45 C366.435,44.226 366.661,44.15 366.81,44.15 C367.036,44.15 367.261,44.45 367.261,44.75 C367.261,45.5 366.36,46.625 364.335,48.125 C361.261,50.45 358.036,51.575 354.585,51.575 C346.786,51.575 340.562,44.676 340.562,36.051 C340.562,27.352 346.937,19.852 354.36,19.852 C358.411,19.852 362.235,21.877 364.485,25.176 C365.61,26.826 367.036,30.201 367.036,31.326 C367.036,32.15 366.435,32.451 364.485,32.451 C362.761,32.451 362.161,32.451 359.386,32.376 L345.587,32.376 L345.587,33.351 Z" id="Fill-2" fill="#ffffff" mask="url(#mask-2)"></path>
            <path d="M376.61,29.826 C376.61,35.601 379.761,40.025 383.886,40.025 C388.009,40.025 390.71,36.65 390.71,31.477 C390.71,25.401 387.56,21.051 383.136,21.051 C379.534,21.051 376.61,24.951 376.61,29.826 Z M373.161,57.125 C373.161,61.175 376.534,63.5 382.386,63.5 C388.909,63.5 393.935,60.574 393.935,56.75 C393.935,54.574 392.36,53.525 388.759,53.375 C382.31,53.15 378.261,52.775 376.61,52.25 C374.21,53.3 373.161,54.8 373.161,57.125 Z M374.96,51.426 C373.011,49.926 372.485,49.025 372.485,47.301 C372.485,44.601 374.06,41.9 376.761,40.025 C373.46,38 371.886,35.15 371.886,31.102 C371.886,24.576 376.61,19.852 383.136,19.852 C385.61,19.852 388.985,20.826 391.009,22.026 C392.06,22.701 392.36,22.852 392.735,22.852 C393.56,22.852 394.983,22.401 396.108,21.727 C397.384,20.977 397.46,20.901 398.21,18.651 C398.284,18.426 398.509,18.201 398.733,18.201 C399.108,18.201 399.409,18.576 399.409,19.102 C399.409,20.002 398.585,23.151 397.983,24.576 C397.608,25.551 396.784,26.227 395.659,26.525 C395.134,26.676 394.983,26.826 394.983,27.201 C394.983,27.352 395.06,27.576 395.134,27.876 C395.21,28.4 395.435,30.201 395.435,31.025 C395.435,36.65 390.185,41.451 383.886,41.451 C382.909,41.451 381.034,41.226 379.685,41 C379.235,40.926 378.86,40.851 378.56,40.851 C376.985,40.851 375.261,42.875 375.261,44.825 C375.261,46.25 376.31,47.301 378.034,47.825 C379.085,48.051 380.735,48.2 384.11,48.275 C390.56,48.426 392.509,48.725 394.384,49.775 C396.259,50.825 397.31,52.7 397.31,54.949 C397.31,60.574 390.935,65 382.835,65 C375.036,65 369.71,62.074 369.71,57.725 C369.71,54.875 371.435,52.85 374.96,51.65 L374.96,51.426 Z" id="Fill-4" fill="#ffffff" mask="url(#mask-2)"></path>
            <path d="M418.062,30.426 C420.462,30.426 420.987,30.201 420.987,29.301 C420.987,25.401 417.013,21.502 413.112,21.502 C409.138,21.502 406.288,24.951 405.687,30.426 L418.062,30.426 Z M405.538,33.351 L405.538,33.876 C405.612,41.676 411.013,47.975 417.536,47.975 C420.462,47.975 422.487,47.15 426.161,44.45 C426.386,44.226 426.612,44.15 426.761,44.15 C426.987,44.15 427.212,44.45 427.212,44.75 C427.212,45.5 426.312,46.625 424.286,48.125 C421.212,50.45 417.987,51.575 414.536,51.575 C406.737,51.575 400.513,44.676 400.513,36.051 C400.513,27.352 406.888,19.852 414.312,19.852 C418.362,19.852 422.187,21.877 424.437,25.176 C425.562,26.826 426.987,30.201 426.987,31.326 C426.987,32.15 426.386,32.451 424.437,32.451 C422.712,32.451 422.112,32.451 419.337,32.376 L405.538,32.376 L405.538,33.351 Z" id="Fill-5" fill="#ffffff" mask="url(#mask-2)"></path>
            <path d="M12.45,40.549 C12.45,45.348 12.525,46.023 13.274,47.223 C13.874,48.348 15.825,49.174 18.749,49.623 C19.574,49.773 19.874,49.998 19.874,50.523 C19.874,50.898 19.574,51.123 19.124,51.123 C18.749,51.123 17.924,51.049 17.024,50.973 C16.649,50.898 11.249,50.823 9.75,50.823 C9.525,50.823 5.175,50.898 5.1,50.973 C3.975,51.049 3.075,51.123 2.925,51.123 C2.325,51.123 1.725,50.674 1.725,50.223 C1.725,49.848 2.025,49.623 2.775,49.549 C4.875,49.323 6.075,48.049 6.525,45.424 C6.75,44.148 6.825,42.948 6.825,39.498 L6.825,9.725 C6.825,3.725 6.225,2.9 0.975,1.775 C0.375,1.7 0,1.4 0,1.025 C0,0.65 0.525,0.275 1.05,0.275 C1.35,0.275 1.8,0.275 2.325,0.35 C3,0.426 6.675,0.575 8.1,0.575 L14.249,0.426 C15.149,0.35 15.899,0.275 16.049,0.275 C16.499,0.275 16.874,0.575 16.874,0.95 C16.874,1.325 16.575,1.625 15.975,1.85 C12.9,3.2 12.45,4.175 12.45,9.125 L12.45,23.374 C12.45,23.975 12.525,24.199 12.749,24.199 C12.9,24.199 12.975,24.124 13.874,23.299 L28.44,9.199 C31.141,6.8 32.04,5.525 32.04,4.025 C32.04,2.9 31.141,2.15 29.415,1.85 C27.991,1.625 27.691,1.475 27.691,0.875 C27.691,0.426 28.141,0.125 28.815,0.125 C29.04,0.125 29.415,0.125 29.866,0.2 L36.615,0.5 C38.94,0.5 42.015,0.426 42.465,0.35 C42.99,0.275 43.365,0.2 43.665,0.2 C44.19,0.2 44.64,0.575 44.64,1.025 C44.64,1.475 44.34,1.625 42.915,2 C40.59,2.525 38.115,4.25 30.241,11.225 L18.899,22.549 C18.074,23.299 18.074,23.299 18.074,23.824 C18.074,24.199 18.225,24.424 18.975,25.249 L36.804,45.198 C39.354,47.823 41.003,48.648 45.053,49.398 C45.578,49.549 45.878,49.773 45.878,50.148 C45.878,50.598 45.428,50.973 44.829,50.973 C44.604,50.973 44.303,50.973 43.854,50.898 C43.403,50.823 42.579,50.823 41.378,50.823 C39.503,50.823 38.079,50.823 37.479,50.898 C36.804,50.973 36.204,50.973 35.829,50.973 C34.779,50.973 34.404,50.748 33.054,49.248 L14.7,28.999 C13.575,27.799 13.575,27.799 13.05,27.799 C12.675,27.799 12.45,28.174 12.45,28.624 L12.45,40.549" id="Fill-6" fill="#ffffff" mask="url(#mask-2)"></path>
        </g>
        <path d="M60.872,31.424 C63.272,31.424 63.798,31.199 63.798,30.299 C63.798,26.399 59.823,22.5 55.923,22.5 C51.948,22.5 49.098,25.949 48.498,31.424 L60.872,31.424 Z M48.348,34.349 L48.348,34.874 C48.423,42.674 53.823,48.973 60.348,48.973 C63.272,48.973 65.298,48.148 68.972,45.448 C69.197,45.224 69.423,45.148 69.572,45.148 C69.798,45.148 70.022,45.448 70.022,45.748 C70.022,46.498 69.122,47.623 67.097,49.123 C64.022,51.448 60.798,52.573 57.348,52.573 C49.548,52.573 43.323,45.674 43.323,37.049 C43.323,28.35 49.698,20.85 57.122,20.85 C61.173,20.85 64.997,22.875 67.247,26.174 C68.372,27.824 69.798,31.199 69.798,32.324 C69.798,33.148 69.197,33.449 67.247,33.449 C65.522,33.449 64.923,33.449 62.147,33.374 L48.348,33.374 L48.348,34.349 Z" id="Fill-8" fill="#ffffff"></path>
        <path d="M82.798,26.699 C86.247,22.5 89.247,20.85 93.071,20.85 C97.122,20.85 100.946,23.174 102.896,26.773 C104.021,28.874 104.546,31.648 104.546,35.699 L104.546,44.474 C104.546,47.473 104.621,48.148 105.296,48.898 C105.972,49.723 106.571,49.948 109.271,50.323 C109.871,50.473 110.246,50.773 110.246,51.148 C110.246,51.523 109.722,51.898 109.121,51.898 C108.821,51.898 108.222,51.823 107.621,51.748 C106.946,51.674 105.071,51.598 103.196,51.598 L96.972,51.823 C96.597,51.823 96.372,51.598 96.372,51.148 C96.372,50.623 96.446,50.623 98.097,50.174 C99.146,49.948 99.521,49.198 99.521,47.623 L99.521,34.874 C99.521,31.124 98.997,29.324 97.571,27.449 C95.921,25.424 93.372,24.225 90.597,24.225 C86.472,24.225 82.798,27.074 82.798,30.148 L82.798,44.099 C82.798,47.698 82.872,48.223 83.697,49.049 C84.297,49.648 86.247,50.323 87.972,50.398 C88.797,50.473 89.172,50.698 89.172,51.223 C89.172,51.523 88.797,51.823 88.347,51.823 C87.897,51.823 87.297,51.748 86.472,51.674 C85.946,51.598 85.272,51.598 83.922,51.598 C77.847,51.598 77.247,51.598 74.772,51.823 L74.548,51.823 C74.098,51.823 73.872,51.598 73.872,51.299 C73.872,50.924 74.098,50.698 74.548,50.549 C76.647,49.873 77.097,49.498 77.548,47.924 C77.772,47.174 77.772,46.799 77.772,44.849 L77.772,29.324 C77.772,27.449 77.472,26.024 77.022,25.499 C76.423,24.899 76.197,24.824 73.272,24.824 C72.673,24.824 72.298,24.6 72.298,24.149 C72.298,23.774 72.598,23.625 73.198,23.475 C76.423,22.649 77.548,22.199 81.298,20.324 C81.673,20.1 81.897,20.024 82.197,20.024 C82.798,20.024 82.798,20.1 82.798,22.5 L82.798,26.699" id="Fill-9" fill="#ffffff"></path>
        <path d="M130.615,31.273 C131.216,29.699 131.515,28.124 131.515,26.924 C131.515,24.6 130.615,23.774 127.615,23.1 C126.94,22.949 126.716,22.725 126.716,22.274 C126.716,21.899 126.94,21.674 127.391,21.674 C127.69,21.674 128.216,21.674 128.89,21.75 C129.341,21.824 130.315,21.824 131.591,21.824 C133.765,21.824 135.49,21.824 136.09,21.75 C136.765,21.674 137.365,21.674 137.74,21.674 C138.265,21.674 138.489,21.899 138.489,22.274 C138.489,22.649 138.265,22.875 137.74,23.1 C135.716,23.85 135.49,24.149 134.44,26.85 L121.466,63.373 C120.79,65.322 120.79,65.397 120.415,65.623 C120.266,65.697 119.591,65.772 118.315,65.772 C115.466,65.772 115.315,65.772 115.315,65.248 C115.315,65.098 115.466,64.798 115.767,64.572 C119.065,61.348 122.141,55.723 122.141,53.023 C122.141,52.123 121.69,50.773 120.716,48.523 L111.565,27.225 C110.366,24.374 109.616,23.625 107.966,23.174 C107.366,23.024 107.142,22.799 107.142,22.5 C107.142,22.049 107.666,21.674 108.267,21.674 C108.642,21.674 109.315,21.75 110.142,21.824 C110.741,21.899 111.94,21.899 113.517,21.899 C116.065,21.899 117.866,21.824 118.616,21.75 L120.116,21.674 C120.641,21.674 120.94,21.975 120.94,22.424 C120.94,22.949 120.491,23.1 118.991,23.399 C117.341,23.625 116.815,24.074 116.815,25.124 C116.815,26.024 117.19,27.449 117.94,29.249 L125.141,46.348 L130.615,31.273" id="Fill-10" fill="#ffffff"></path>
        <path d="M143.64,34.724 C143.64,43.948 148.964,50.998 155.938,50.998 C161.863,50.998 165.613,46.198 165.613,38.623 C165.613,28.874 160.813,22.274 153.688,22.274 C147.688,22.274 143.64,27.299 143.64,34.724 Z M170.788,36.748 C170.788,45.748 163.738,52.573 154.438,52.573 C145.214,52.573 138.464,46.049 138.464,37.123 C138.464,27.898 145.589,20.85 154.964,20.85 C163.589,20.85 170.788,28.049 170.788,36.748 Z" id="Fill-11" fill="#ffffff"></path>
        <path d="M183.389,26.699 C186.839,22.5 189.839,20.85 193.663,20.85 C197.713,20.85 201.538,23.174 203.487,26.773 C204.612,28.874 205.138,31.648 205.138,35.699 L205.138,44.474 C205.138,47.473 205.212,48.148 205.888,48.898 C206.563,49.723 207.163,49.948 209.862,50.323 C210.462,50.473 210.837,50.773 210.837,51.148 C210.837,51.523 210.313,51.898 209.712,51.898 C209.413,51.898 208.813,51.823 208.212,51.748 C207.538,51.674 205.663,51.598 203.788,51.598 L197.563,51.823 C197.188,51.823 196.963,51.598 196.963,51.148 C196.963,50.623 197.038,50.623 198.688,50.174 C199.737,49.948 200.112,49.198 200.112,47.623 L200.112,34.874 C200.112,31.124 199.588,29.324 198.163,27.449 C196.513,25.424 193.963,24.225 191.188,24.225 C187.063,24.225 183.389,27.074 183.389,30.148 L183.389,44.099 C183.389,47.698 183.464,48.223 184.288,49.049 C184.888,49.648 186.839,50.323 188.563,50.398 C189.388,50.473 189.763,50.698 189.763,51.223 C189.763,51.523 189.388,51.823 188.938,51.823 C188.488,51.823 187.888,51.748 187.063,51.674 C186.538,51.598 185.863,51.598 184.513,51.598 C178.438,51.598 177.839,51.598 175.364,51.823 L175.139,51.823 C174.688,51.823 174.464,51.598 174.464,51.299 C174.464,50.924 174.688,50.698 175.139,50.549 C177.239,49.873 177.688,49.498 178.139,47.924 C178.364,47.174 178.364,46.799 178.364,44.849 L178.364,29.324 C178.364,27.449 178.063,26.024 177.614,25.499 C177.014,24.899 176.788,24.824 173.864,24.824 C173.264,24.824 172.889,24.6 172.889,24.149 C172.889,23.774 173.188,23.625 173.789,23.475 C177.014,22.649 178.139,22.199 181.889,20.324 C182.264,20.1 182.488,20.024 182.788,20.024 C183.389,20.024 183.389,20.1 183.389,22.5 L183.389,26.699" id="Fill-12" fill="#ffffff"></path>
        <path d="M268.177,14.41 C268.247,14.936 268.315,15.311 268.315,15.386 C268.315,15.761 268.036,16.061 267.685,16.061 C267.335,16.061 267.192,15.91 266.491,14.561 C262.21,6.461 256.452,2.486 248.94,2.486 C237.356,2.486 230.266,10.736 230.266,24.16 C230.266,39.234 238.621,49.959 250.274,49.959 C254.417,49.959 258.276,48.684 261.647,46.209 C264.245,44.334 266.351,41.934 267.335,39.91 C268.106,38.109 268.247,37.959 268.667,37.959 C268.948,37.959 269.229,38.26 269.229,38.635 C269.229,38.859 269.229,38.859 269.019,39.91 L268.247,44.334 L268.106,45.01 C267.964,45.91 267.825,46.059 266.21,47.109 C260.944,50.635 255.47,52.359 249.431,52.359 C242.552,52.359 236.655,50.334 232.513,46.66 C227.528,42.16 224.51,34.811 224.51,26.936 C224.51,11.636 234.97,0.387 249.222,0.387 C253.575,0.387 258.628,1.736 262.349,3.836 C264.034,4.736 264.595,5.036 264.806,5.036 C264.946,5.036 265.157,4.961 265.368,4.736 C265.931,4.361 266.21,4.211 266.351,4.211 C266.772,4.211 266.983,4.586 267.122,5.637 L268.177,14.41" id="Fill-13" fill="#ffffff"></path>
        <path d="M315.685,43.18 C315.685,45.13 316.21,47.605 316.735,48.429 C317.335,49.329 318.46,49.855 320.935,50.304 C321.685,50.38 321.983,50.679 321.983,51.13 C321.983,51.505 321.608,51.88 321.159,51.88 C320.935,51.88 320.634,51.804 320.259,51.73 L318.46,51.654 L315.759,51.654 C312.159,51.654 309.46,51.654 309.235,51.804 C308.56,51.88 307.96,51.954 307.81,51.954 C307.284,51.954 306.835,51.579 306.835,51.13 C306.835,50.755 307.136,50.529 307.886,50.304 C310.735,49.329 310.81,49.179 310.659,43.48 L310.659,10.456 C310.659,8.206 310.585,7.755 310.136,7.081 C309.61,6.405 308.935,6.031 308.11,6.031 C307.81,6.031 307.36,6.031 306.761,6.105 L306.386,6.105 C305.784,6.105 305.409,5.806 305.409,5.431 C305.409,5.13 305.71,4.831 306.386,4.681 C307.659,4.306 308.11,4.23 309.386,3.63 L311.634,2.73 C313.36,2.056 313.585,1.906 314.485,1.306 C314.784,1.081 315.009,1.006 315.235,1.006 C315.61,1.006 315.759,1.531 315.759,2.506 L315.759,3.105 C315.685,3.406 315.685,3.63 315.685,3.781 L315.685,43.18" id="Fill-14" fill="#ffffff"></path>
        <path d="M333.733,43.18 C333.733,45.13 334.259,47.605 334.784,48.429 C335.384,49.329 336.509,49.855 338.983,50.304 C339.733,50.38 340.034,50.679 340.034,51.13 C340.034,51.505 339.659,51.88 339.21,51.88 C338.983,51.88 338.685,51.804 338.31,51.73 L336.509,51.654 L333.81,51.654 C330.21,51.654 327.509,51.654 327.284,51.804 C326.61,51.88 326.009,51.954 325.86,51.954 C325.335,51.954 324.884,51.579 324.884,51.13 C324.884,50.755 325.185,50.529 325.935,50.304 C328.784,49.329 328.86,49.179 328.71,43.48 L328.71,10.456 C328.71,8.206 328.634,7.755 328.185,7.081 C327.659,6.405 326.985,6.031 326.159,6.031 C325.86,6.031 325.409,6.031 324.81,6.105 L324.435,6.105 C323.835,6.105 323.46,5.806 323.46,5.431 C323.46,5.13 323.761,4.831 324.435,4.681 C325.71,4.306 326.159,4.23 327.435,3.63 L329.685,2.73 C331.409,2.056 331.634,1.906 332.534,1.306 C332.835,1.081 333.06,1.006 333.284,1.006 C333.659,1.006 333.81,1.531 333.81,2.506 L333.81,3.105 C333.733,3.406 333.733,3.63 333.733,3.781 L333.733,43.18" id="Fill-15" fill="#ffffff"></path>
    </g>
</svg>