<?xml version="1.0" encoding="UTF-8"?>
<svg width="18px" height="15px" viewBox="0 0 18 15" version="1.1" xmlns="http://www.w3.org/2000/svg" xmlns:xlink="http://www.w3.org/1999/xlink">
    <!-- Generator: Sketch 51.1 (57501) - http://www.bohemiancoding.com/sketch -->
    <title>Shape</title>
    <desc>Created with Sketch.</desc>
    <defs></defs>
    <g id="Homepage-–-RD-4-+-Mobes--✅" stroke="none" stroke-width="1" fill-rule="evenodd">
        <g id="Mobile" transform="translate(-100.000000, -4034.000000)" fill-rule="nonzero">
            <g id="Footer" transform="translate(0.000000, 3795.000000)">
                <g id="SOCIAL" transform="translate(100.000000, 239.000000)">
                    <path d="M16.5026973,2.16426857 C16.9729573,1.7173985 17.3265316,1.1584592 17.5260051,0.534582162 C17.5829411,0.35647604 17.3894908,0.202463266 17.2286633,0.297825443 C16.6349469,0.649992819 15.995418,0.914184299 15.3277948,1.0831455 C15.2890608,1.09294991 15.2490958,1.09791807 15.2089988,1.09791807 C15.0873889,1.09791807 14.9691645,1.05276502 14.8761765,0.970812462 C14.1658623,0.344781093 13.2522936,0 12.3038158,0 C11.8933935,0 11.4790143,0.0639704783 11.0721533,0.190152796 C9.81156114,0.581142119 8.83890211,1.62098114 8.53373435,2.90390799 C8.41924698,3.38511547 8.38825097,3.86676261 8.44153772,4.33543979 C8.44764899,4.3892981 8.4221927,4.426889 8.40649685,4.44451935 C8.38811908,4.46512473 8.35237475,4.48133352 8.29926386,4.49314571 C5.52606669,4.23612068 3.03776896,2.90672181 1.27891055,0.749224001 C1.18921998,0.639177192 1.01722513,0.652674743 0.945736472,0.775295818 C0.601307106,1.36619838 0.419288013,2.04204319 0.419288013,2.7297588 C0.419288013,3.7837109 0.842724217,4.77694601 1.57823084,5.50102148 C1.26893028,5.42768625 0.969566024,5.31218766 0.691481299,5.15773523 C0.556945448,5.08299309 0.391413591,5.17905872 0.389523055,5.33293959 C0.370265963,6.89865552 1.28695632,8.291849 2.66018926,8.91919935 C2.63253466,8.91985884 2.60488007,8.9201666 2.57718152,8.9201666 C2.35950603,8.9201666 2.13910465,8.89915087 1.92217658,8.85769097 C1.77066986,8.82876136 1.6433884,8.9724861 1.69043198,9.11937639 C2.13615893,10.5109431 3.33431939,11.5366691 4.76813742,11.7695568 C3.57815463,12.5683744 2.19239139,12.9897442 0.75008793,12.9897442 L0.300448011,12.9894804 C0.161911257,12.9894804 0.0447419615,13.0797865 0.00943729201,13.2139706 C-0.0253397859,13.3461323 0.0387186244,13.4855484 0.156855171,13.5542672 C1.78210101,14.500107 3.63592591,15 5.51872437,15 C7.16678855,15 8.70841113,14.6729372 10.1008132,14.0279565 C11.3772771,13.4366582 12.5052679,12.5914126 13.4534378,11.5156973 C14.3367141,10.5136251 15.0274194,9.35683656 15.5062967,8.07751493 C15.9627953,6.85803097 16.2040805,5.55681428 16.2040805,4.31451199 L16.2040805,4.2553338 C16.2040365,4.05586022 16.2942547,3.86816952 16.4516528,3.74040443 C17.0489305,3.25545984 17.5690478,2.68460576 17.9974961,2.04371389 C18.1106206,1.8744889 17.9322067,1.66239708 17.7460548,1.74496516 C17.345393,1.92263163 16.9294749,2.06279512 16.5026973,2.16426857 Z" id="Shape"></path>
                </g>
            </g>
        </g>
    </g>
</svg>