<?xml version="1.0" encoding="UTF-8"?>
<svg width="23px" height="15px" viewBox="0 0 23 15" version="1.1" xmlns="http://www.w3.org/2000/svg" xmlns:xlink="http://www.w3.org/1999/xlink">
    <!-- Generator: Sketch 51.1 (57501) - http://www.bohemiancoding.com/sketch -->
    <title>Shape</title>
    <desc>Created with Sketch.</desc>
    <defs></defs>
    <g id="Homepage-–-RD-4-+-Mobes--✅" stroke="none" stroke-width="1" fill="none" fill-rule="evenodd">
        <g id="Mobile" transform="translate(-134.000000, -4034.000000)" fill="#FFFFFF" fill-rule="nonzero">
            <g id="Footer" transform="translate(0.000000, 3795.000000)">
                <g id="SOCIAL" transform="translate(100.000000, 239.000000)">
                    <g id="youtube" transform="translate(34.565217, 0.000000)">
                        <path d="M20.520728,1.5 C20.023288,0.392727273 19.3897418,0.199090909 18.0182002,0 C16.8111685,0.0368181818 13.5708016,0 11.0111223,0 C7.9509375,0 4.70922554,0.0368181818 3.50353893,0 C2.1346875,0.199090909 1.4997962,0.391363636 1.00101112,1.5 C0.309375,2.49681818 0,4.30772727 0,7.5 C0,7.49863636 0,7.5 0,7.5 C0,7.50272727 0,7.50409091 0,7.5 C0,10.6813636 0.309375,12.5059091 1.00101112,13.5 C1.4997962,14.5990909 2.13334239,14.79 3.50353893,15 C4.70922554,14.955 7.9509375,15 11.0111223,15 C13.5708016,15 16.8111685,14.955 18.0182002,15 C19.391087,14.7913636 20.0246332,14.6004545 20.520728,13.5 C21.2150543,12.5072727 21.5217391,10.6827273 21.5217391,7.5 C21.5217391,7.50818182 21.5217391,7.50409091 21.5217391,7.5 C21.5217391,7.50136364 21.5217391,7.49863636 21.5217391,7.5 C21.5217391,4.30772727 21.2150543,2.49681818 20.520728,1.5 Z M8.00808898,12 L8.00808898,3.5 L14.5146613,8 L8.00808898,12 Z" id="Shape"></path>
                    </g>
                </g>
            </g>
        </g>
    </g>
</svg>