<?xml version="1.0" encoding="UTF-8"?>
<svg width="17px" height="12px" viewBox="0 0 17 12" version="1.1" xmlns="http://www.w3.org/2000/svg" xmlns:xlink="http://www.w3.org/1999/xlink">
    <g id="Master-Subpage---Approved" stroke="" stroke-width="1" fill="" fill-rule="evenodd">
        <g id="Master-Sub---Image" transform="translate(-453.000000, -2163.000000)" fill="" fill-rule="nonzero" stroke="" stroke-width="0.5">
            <g id="Group-8" transform="translate(157.000000, 2080.000000)">
                <path d="M301.893077,84.1503997 C302.104541,83.9498668 302.437454,83.9498668 302.648918,84.1503997 C302.853237,84.3441579 302.853237,84.6666366 302.648918,84.8599431 L298.816374,88.4943769 L311.463244,88.4943769 C311.758055,88.4943769 312,88.7165891 312,88.996161 C312,89.2757328 311.758055,89.5051714 311.463244,89.5051714 L298.816374,89.5051714 L302.648918,93.1328305 C302.853237,93.3333634 302.853237,93.6562938 302.648918,93.8496003 C302.437454,94.0501332 302.104541,94.0501332 301.893077,93.8496003 L297.15324,89.3547717 C296.94892,89.1610135 296.94892,88.8385348 297.15324,88.6452283 L301.893077,84.1503997 Z" id="Shape-Copy" transform="translate(304.500000, 89.000000) scale(-1, 1) translate(-304.500000, -89.000000) "></path>
            </g>
        </g>
    </g>
</svg>