<?xml version="1.0" encoding="UTF-8"?>
<svg width="20px" height="14px" viewBox="0 0 20 14" version="1.1" xmlns="http://www.w3.org/2000/svg" xmlns:xlink="http://www.w3.org/1999/xlink">
    <g id="Core-Templates---✔️" stroke="none" stroke-width="1" fill="" fill-rule="evenodd">
        <g id="Search" transform="translate(-177.000000, -3021.000000)" fill="" fill-rule="nonzero" stroke="#1573DD" stroke-width="0.5">
            <g id="Group-8" transform="translate(161.000000, 3003.000000)">
                <g id="Group-6" transform="translate(34.500000, 25.500000) scale(-1, 1) translate(-34.500000, -25.500000) translate(17.000000, 8.000000)">
                    <path d="M22.8716929,11.1804797 C23.1254495,10.9398401 23.5249446,10.9398401 23.7787012,11.1804797 C24.0238849,11.4129895 24.0238849,11.7999639 23.7787012,12.0319317 L19.179649,16.3932523 L34.3558926,16.3932523 C34.7096659,16.3932523 35,16.659907 35,16.9953932 C35,17.3308794 34.7096659,17.6062057 34.3558926,17.6062057 L19.179649,17.6062057 L23.7787012,21.9593966 C24.0238849,22.2000361 24.0238849,22.5875525 23.7787012,22.8195203 C23.5249446,23.0601599 23.1254495,23.0601599 22.8716929,22.8195203 L17.1838878,17.425726 C16.9387041,17.1932162 16.9387041,16.8062418 17.1838878,16.574274 L22.8716929,11.1804797 Z" id="Shape-Copy" transform="translate(26.000000, 17.000000) scale(-1, 1) translate(-26.000000, -17.000000) "></path>
                </g>
            </g>
        </g>
    </g>
</svg>