<?xml version="1.0" encoding="UTF-8"?>
<svg width="19px" height="25px" viewBox="0 0 19 25" version="1.1" xmlns="http://www.w3.org/2000/svg" xmlns:xlink="http://www.w3.org/1999/xlink">
    <!-- Generator: Sketch 50 (54983) - http://www.bohemiancoding.com/sketch -->
    <title>flaticon1523379472-svg</title>
    <desc>Created with Sketch.</desc>
    <defs></defs>
    <g id="Core-Templates---✔️" stroke="none" stroke-width="1" fill="" fill-rule="evenodd">
        <g id="Master-Sub---Image" transform="translate(-109.000000, -49.000000)" fill="" fill-rule="nonzero">
            <g id="flaticon1523379472-svg" transform="translate(109.000000, 49.000000)">
                <path d="M6.61093557,21.9844565 C6.61088235,21.9909783 6.61045658,21.9974457 6.61045658,22.0039674 C6.61045658,23.6386413 7.90815126,24.9638043 9.50894118,24.9638043 C11.1097311,24.9638043 12.4074258,23.6386413 12.4074258,22.0039674 C12.4074258,21.9974457 12.407,21.9909783 12.4069468,21.9844565 L6.61093557,21.9844565 Z" id="Shape"></path>
                <path d="M18.763112,18.2846739 L16.1544706,14.3715217 C16.1544706,13.1736413 16.1544706,10.2466304 16.1544706,9.48945652 C16.1544706,6.19701087 13.8582913,3.45255435 10.8120644,2.83407609 L10.8120644,1.33070652 C10.8120112,0.595815217 10.2285994,0 9.50888796,0 C8.78917647,0 8.20576471,0.595815217 8.20576471,1.33070652 L8.20576471,2.83413043 C5.15953782,3.45266304 2.86335854,6.19711957 2.86335854,9.48951087 C2.86335854,10.7784239 2.86335854,13.6245109 2.86335854,14.3715761 L0.254717087,18.2847283 C-0.0200644258,18.6969022 -0.0491232493,19.2304348 0.179196078,19.6711957 C0.407515406,20.1119565 0.855745098,20.3876087 1.34405042,20.3876087 L17.6737255,20.3876087 C18.1620308,20.3876087 18.6102605,20.1119022 18.8385798,19.6711957 C19.0669524,19.2303804 19.0378403,18.6968478 18.763112,18.2846739 Z" id="Shape"></path>
            </g>
        </g>
    </g>
</svg>