<?xml version="1.0" encoding="UTF-8"?>
<svg width="14px" height="14px" viewBox="0 0 14 14" version="1.1" xmlns="http://www.w3.org/2000/svg" xmlns:xlink="http://www.w3.org/1999/xlink">
    <g id="Academic-Program---Round-1---✔️" stroke="none" stroke-width="1" fill="" fill-rule="evenodd">
        <g id="Academic-Program" transform="translate(-626.000000, -3869.000000)" fill="">
            <g id="Group-15" transform="translate(-3.000000, 3657.000000)">
                <g id="Group-12" transform="translate(629.000000, 202.000000)">
                    <path d="M7,10 C10.8759766,10 14,13.1240234 14,17 C14,20.8759766 10.8759766,24 7,24 C3.12402344,24 0,20.8759766 0,17 C0,13.1240234 3.12402344,10 7,10 Z M10.0966797,20.0966797 L10.9238281,19.2695312 L8.06640625,16.4189453 L7,11.75 L5.83105469,11.75 L5.83105469,17 C5.83105469,17.2939453 5.94726562,17.6015625 6.17285156,17.8271484 C6.24121094,17.8886719 6.30273438,17.9365234 6.37109375,17.9912109 L10.0966797,20.0966797 Z" id="clock"></path>
                </g>
            </g>
        </g>
    </g>
</svg>