<?xml version="1.0" encoding="UTF-8"?>
<svg width="24px" height="24px" viewBox="0 0 24 24" version="1.1" xmlns="http://www.w3.org/2000/svg" xmlns:xlink="http://www.w3.org/1999/xlink">
    <g id="Master-Subpage---Approved" stroke="" stroke-width="1" fill="" fill-rule="evenodd">
        <g id="Media-Gallery-Lightbox" transform="translate(-18.000000, -18.000000)" fill="" fill-rule="nonzero" stroke="">
            <g id="Group-4">
                <path d="M29.240625,29.428125 L29.240625,15.8978215 C29.3356013,15.4242738 29.5905359,15.1875 30.005429,15.1875 C30.420322,15.1875 30.6716374,15.4242738 30.759375,15.8978215 L30.759375,29.428125 L44.2591001,29.428125 C44.6660362,29.428125 45,29.7620057 45,30.182071 C45,30.6021364 44.6660362,30.946875 44.2591001,30.946875 L30.759375,30.946875 L30.759375,44.4466001 C30.759375,44.8535362 30.4254943,45.1875 30.005429,45.1875 C29.5853636,45.1875 29.240625,44.8535362 29.240625,44.4466001 L29.240625,30.946875 L15.7103215,30.946875 C15.2367738,30.8518987 15,30.5969641 15,30.182071 C15,29.767178 15.2367738,29.5158626 15.7103215,29.428125 L29.240625,29.428125 Z" id="Combined-Shape" transform="translate(30.000000, 30.187500) rotate(45.000000) translate(-30.000000, -30.187500) "></path>
            </g>
        </g>
    </g>
</svg>