<?xml version="1.0" encoding="UTF-8"?>
<svg width="5px" height="13px" viewBox="0 0 5 13" version="1.1" xmlns="http://www.w3.org/2000/svg" xmlns:xlink="http://www.w3.org/1999/xlink">
    <g id="Master-Subpage---Approved" stroke="none" stroke-width="1" fill="" fill-rule="evenodd">
        <g id="Master-Sub---No-Image" transform="translate(-342.000000, -109.000000)" fill="">
            <g id="Group-3" transform="translate(0.000000, 85.000000)">
                <path d="M342.473746,32.490988 L345.958788,32.490988 C346.23493,32.490988 346.458788,32.7148456 346.458788,32.990988 C346.458788,33.0887839 346.430108,33.1844328 346.3763,33.2660947 L344.633779,35.910608 C344.481842,36.1411935 344.171746,36.2049505 343.94116,36.0530133 C343.884524,36.0156949 343.836073,35.9672438 343.798755,35.910608 L342.056234,33.2660947 C341.904297,33.0355092 341.968054,32.7254132 342.19864,32.573476 C342.280301,32.5196674 342.37595,32.490988 342.473746,32.490988 Z M342.473746,27.6908334 C342.37595,27.6908334 342.280301,27.6621541 342.19864,27.6083455 C341.968054,27.4564082 341.904297,27.1463123 342.056234,26.9157267 L343.798755,24.2712135 C343.836073,24.2145777 343.884524,24.1661266 343.94116,24.1288082 C344.171746,23.9768709 344.481842,24.040628 344.633779,24.2712135 L346.3763,26.9157267 C346.430108,26.9973886 346.458788,27.0930376 346.458788,27.1908334 C346.458788,27.4669758 346.23493,27.6908334 345.958788,27.6908334 L342.473746,27.6908334 Z" id="Combined-Shape"></path>
            </g>
        </g>
    </g>
</svg>