<?xml version="1.0" encoding="UTF-8"?>
<svg width="23px" height="18px" viewBox="0 0 23 18" version="1.1" xmlns="http://www.w3.org/2000/svg" xmlns:xlink="http://www.w3.org/1999/xlink">
    <!-- Generator: Sketch 51.1 (57501) - http://www.bohemiancoding.com/sketch -->
    <title>out</title>
    <desc>Created with Sketch.</desc>
    <defs></defs>
    <g id="News-Listing---Round-1---✔️" stroke="none" stroke-width="1" fill="" fill-rule="evenodd">
        <g id="News-Detail-Example---Image-Top" transform="translate(-414.000000, -4477.000000)" fill="">
            <g id="Group-5" transform="translate(160.000000, 4453.000000)">
                <path d="M269.624928,38.0493791 L272.465824,36.1073603 L272.465824,39.159104 C272.465824,40.712719 271.178543,42 269.624928,42 L256.840896,42 C255.287281,42 254,40.712719 254,39.159104 L254,27.7955202 C254,26.2419052 255.287281,24.9546243 256.840896,24.9546243 L264.886402,24.9546243 L264.886402,26.1087382 C263.177426,26.3750722 261.734783,26.9188375 260.525183,27.7955202 L256.840896,27.7955202 L256.840896,39.159104 L269.624928,39.159104 L269.624928,38.0493791 Z M276.51632,30.2369152 C276.649487,30.3478877 276.727168,30.4699574 276.727168,30.6364162 C276.727168,30.7917777 276.649487,30.9471392 276.51632,31.0248199 L267.51645,37.1837936 C267.43877,37.2392798 267.361089,37.2614743 267.261214,37.2614743 C267.183533,37.2614743 267.094755,37.2392798 267.050366,37.2059881 C266.883907,37.1283073 266.784032,36.9729458 266.784032,36.7842926 L266.784032,33.4440204 C261.002365,33.5771874 259.626306,35.6079841 259.604111,35.6079841 C259.52643,35.7633456 259.371069,35.8410263 259.20461,35.8410263 L259.104735,35.8410263 C258.893887,35.7855401 258.76072,35.6079841 258.738526,35.3971364 C258.738526,35.2861639 258.549872,32.3897816 260.625058,30.2147207 C262.023312,28.716592 264.098497,27.8953955 266.784032,27.8177147 L266.784032,24.4774425 C266.784032,24.2887893 266.883907,24.1334278 267.050366,24.055747 C267.183533,23.9780663 267.394381,23.9780663 267.51645,24.0779415 L276.51632,30.2369152 Z" id="out"></path>
            </g>
        </g>
    </g>
</svg>