<?xml version="1.0" encoding="UTF-8"?>
<svg width="15px" height="15px" viewBox="0 0 15 15" version="1.1" xmlns="http://www.w3.org/2000/svg" xmlns:xlink="http://www.w3.org/1999/xlink">
    <g id="Master-Subpage---Approved" stroke="none" stroke-width="1" fill="" fill-rule="evenodd">
        <g id="Master-Sub---Image" transform="translate(-171.000000, -2864.000000)" fill="">
            <g id="Group-6" transform="translate(79.000000, 2460.000000)">
                <g id="Group-5" transform="translate(92.000000, 399.000000)">
                    <g id="Group-10" transform="translate(0.000000, 5.000000)">
                        <path d="M0,0.314941406 C0,0.139160156 0.139160156,0 0.314941406,0 L3.43505859,0 C3.61083984,0 3.75,0.139160156 3.75,0.314941406 L3.75,3.43505859 C3.75,3.61083984 3.61083984,3.75 3.43505859,3.75 L0.314941406,3.75 C0.139160156,3.75 0,3.61083984 0,3.43505859 L0,0.314941406 Z M5.625,0.314941406 C5.625,0.139160156 5.76416016,0 5.93994141,0 L9.06005859,0 C9.23583984,0 9.375,0.139160156 9.375,0.314941406 L9.375,3.43505859 C9.375,3.61083984 9.23583984,3.75 9.06005859,3.75 L5.93994141,3.75 C5.76416016,3.75 5.625,3.61083984 5.625,3.43505859 L5.625,0.314941406 Z M11.25,0.314941406 C11.25,0.139160156 11.3891602,0 11.5649414,0 L14.6850586,0 C14.8608398,0 15,0.139160156 15,0.314941406 L15,3.43505859 C15,3.61083984 14.8608398,3.75 14.6850586,3.75 L11.5649414,3.75 C11.3891602,3.75 11.25,3.61083984 11.25,3.43505859 L11.25,0.314941406 Z M0,5.93994141 C0,5.76416016 0.139160156,5.625 0.314941406,5.625 L3.43505859,5.625 C3.61083984,5.625 3.75,5.76416016 3.75,5.93994141 L3.75,9.06005859 C3.75,9.23583984 3.61083984,9.375 3.43505859,9.375 L0.314941406,9.375 C0.139160156,9.375 0,9.23583984 0,9.06005859 L0,5.93994141 Z M5.625,5.93994141 C5.625,5.76416016 5.76416016,5.625 5.93994141,5.625 L9.06005859,5.625 C9.23583984,5.625 9.375,5.76416016 9.375,5.93994141 L9.375,9.06005859 C9.375,9.23583984 9.23583984,9.375 9.06005859,9.375 L5.93994141,9.375 C5.76416016,9.375 5.625,9.23583984 5.625,9.06005859 L5.625,5.93994141 Z M11.25,5.93994141 C11.25,5.76416016 11.3891602,5.625 11.5649414,5.625 L14.6850586,5.625 C14.8608398,5.625 15,5.76416016 15,5.93994141 L15,9.06005859 C15,9.23583984 14.8608398,9.375 14.6850586,9.375 L11.5649414,9.375 C11.3891602,9.375 11.25,9.23583984 11.25,9.06005859 L11.25,5.93994141 Z M0,11.5649414 C0,11.3891602 0.139160156,11.25 0.314941406,11.25 L3.43505859,11.25 C3.61083984,11.25 3.75,11.3891602 3.75,11.5649414 L3.75,14.6850586 C3.75,14.8608398 3.61083984,15 3.43505859,15 L0.314941406,15 C0.139160156,15 0,14.8608398 0,14.6850586 L0,11.5649414 Z M5.625,11.5649414 C5.625,11.3891602 5.76416016,11.25 5.93994141,11.25 L9.06005859,11.25 C9.23583984,11.25 9.375,11.3891602 9.375,11.5649414 L9.375,14.6850586 C9.375,14.8608398 9.23583984,15 9.06005859,15 L5.93994141,15 C5.76416016,15 5.625,14.8608398 5.625,14.6850586 L5.625,11.5649414 Z M11.25,11.5649414 C11.25,11.3891602 11.3891602,11.25 11.5649414,11.25 L14.6850586,11.25 C14.8608398,11.25 15,11.3891602 15,11.5649414 L15,14.6850586 C15,14.8608398 14.8608398,15 14.6850586,15 L11.5649414,15 C11.3891602,15 11.25,14.8608398 11.25,14.6850586 L11.25,11.5649414 Z" id="grid"></path>
                    </g>
                </g>
            </g>
        </g>
    </g>
</svg>