<?xml version="1.0" encoding="UTF-8"?>
<svg width="12px" height="12px" viewBox="0 0 12 12" version="1.1" xmlns="http://www.w3.org/2000/svg" xmlns:xlink="http://www.w3.org/1999/xlink">
    <g id="Master-Subpage---Approved" stroke="none" stroke-width="1" fill="" fill-rule="evenodd">
        <g id="Master-Sub---No-Image" transform="translate(-161.000000, -108.000000)" fill="">
            <g id="Group-3" transform="translate(0.000000, 85.000000)">
                <path d="M172.989029,29.1017694 C172.948008,29.1954851 172.848386,29.2540574 172.748765,29.2540574 L171.500562,29.2540574 L171.500562,34.7481391 C171.500562,34.8887126 171.38922,35 171.248577,35 L168.752172,35 C168.611529,35 168.500187,34.8887126 168.500187,34.7481391 L168.500187,30.5016473 L165.499813,30.5016473 L165.499813,34.7481391 C165.499813,34.8887126 165.388471,35 165.247828,35 L162.751423,35 C162.61078,35 162.499438,34.8887126 162.499438,34.7481391 L162.499438,29.2540574 L161.251235,29.2540574 C161.151614,29.2540574 161.051992,29.1954851 161.010971,29.1017694 C160.987531,29.0021965 160.999251,28.9026236 161.069572,28.8206223 L166.818337,23.0746797 C166.917959,22.9751068 167.082041,22.9751068 167.181663,23.0746797 L172.930428,28.8206223 C173.000749,28.9026236 173.012469,29.0021965 172.989029,29.1017694 Z" id="home"></path>
            </g>
        </g>
    </g>
</svg>