<?xml version="1.0" encoding="UTF-8"?>
<svg width="18px" height="18px" viewBox="0 0 18 18" version="1.1" xmlns="http://www.w3.org/2000/svg" xmlns:xlink="http://www.w3.org/1999/xlink">
    <g id="Master-Subpage---Approved" stroke="none" stroke-width="1" fill="" fill-rule="evenodd">
        <g id="Master-Sub---Image" transform="translate(-159.000000, -2106.000000)" fill="">
            <g id="Group-8" transform="translate(157.000000, 2080.000000)">
                <path d="M18.5059566,34.0030698 L15.8731605,36.4428243 C15.8913805,36.2486569 15.9004905,36.0629317 15.9004905,35.8687644 C15.9004905,35.1511896 15.7638402,34.4504988 15.4905396,33.7666922 L16.8661528,32.4666155 C17.394534,31.9685342 17.6587246,31.3269378 17.6587246,30.6853415 C17.6587246,30.0353031 17.394534,29.3937068 16.8661528,28.9040675 C16.3377715,28.4144282 15.64541,28.1696086 14.9439383,28.1696086 C14.2515767,28.1696086 13.5592151,28.4144282 13.0217239,28.9040675 L10.1065172,31.5801995 C9.57813595,32.0867229 9.30483532,32.7367613 9.30483532,33.3867997 C9.30483532,34.0368381 9.56902593,34.6784344 10.1065172,35.1680737 C10.3433777,35.3875672 10.461808,35.666155 10.461808,35.9363008 C10.461808,36.2064467 10.3433777,36.4765925 10.1065172,36.6876439 C9.88787666,36.8986953 9.58724597,37 9.28661528,37 C8.9950946,37 8.69446391,36.8986953 8.46671338,36.6876439 C7.49194114,35.7674597 7,34.5686876 7,33.3699156 C7,32.1711435 7.49194114,30.9723715 8.46671338,30.0606293 L11.3637001,27.3844973 C12.3566924,26.4643131 13.6412053,26 14.9257183,26 C16.2193413,26 17.5129643,26.4643131 18.5059566,27.3844973 C19.4989488,28.3046815 20,29.5034536 20,30.7022256 C20,31.8925556 19.4989488,33.0828856 18.5059566,34.0030698 Z M13.5343137,39.9371648 L10.6211485,42.6344828 C9.63795518,43.5448276 8.3452381,44 7.04341737,44 C5.75070028,44 4.45798319,43.5448276 3.47478992,42.6344828 C2.49159664,41.7241379 2,40.5272031 2,39.3302682 C2,38.1249042 2.49159664,36.9279693 3.47478992,36.0176245 L6.13305322,33.564751 C6.11484594,33.7586207 6.1057423,33.9440613 6.1057423,34.137931 C6.1057423,34.8628352 6.24229692,35.5793103 6.51540616,36.262069 L5.1407563,37.5348659 C4.6127451,38.0237548 4.3487395,38.6727969 4.3487395,39.31341 C4.3487395,39.9624521 4.6127451,40.6030651 5.1407563,41.091954 C5.66876751,41.5808429 6.36064426,41.8252874 7.06162465,41.8252874 C7.7535014,41.8252874 8.45448179,41.5808429 8.982493,41.091954 L11.8683473,38.4199234 C12.4145658,37.9310345 12.6785714,37.2819923 12.6785714,36.6413793 C12.6785714,35.9923372 12.4145658,35.3517241 11.8683473,34.8628352 C11.6407563,34.6521073 11.5315126,34.3739464 11.5315126,34.0873563 C11.5315126,33.8091954 11.6407563,33.5310345 11.8683473,33.3203065 C12.0959384,33.1095785 12.3963585,33 12.7058824,33 C13.0063025,33 13.3067227,33.1095785 13.5343137,33.3203065 C14.517507,34.2390805 15,35.4360153 15,36.6329502 C15,37.8298851 14.517507,39.0268199 13.5343137,39.9371648 Z" id="link"></path>
            </g>
        </g>
    </g>
</svg>