<?xml version="1.0" encoding="UTF-8"?>
<svg width="229px" height="48px" viewBox="0 0 229 48" version="1.1" xmlns="http://www.w3.org/2000/svg" xmlns:xlink="http://www.w3.org/1999/xlink">
    <g id="HTML-Styles--- " stroke="none" stroke-width="1" fill="" fill-rule="evenodd">
        <g id="HTML-Styles" transform="translate(-76.000000, -22.000000)" fill="">
            <g id="Header">
                <g id="Logo" transform="translate(80.000000, 24.000000)">
                    <g id="TrinityCollege_horz_rev-white">
                        <path d="M13.3379683,23.0940627 C13.3379683,25.2109858 14.0278384,25.9558291 16.3657316,25.9558291 L17.783798,25.9558291 L17.783798,26.7006724 L5.71059163,26.7006724 L5.71059163,25.9558291 L7.12865801,25.9558291 C9.46655123,25.9558291 10.1569004,25.2109858 10.1569004,23.0940627 L10.1569004,3.72764672 L3.48767677,3.72764672 C1.95463203,3.72764672 1.2647619,4.62929915 0.68987013,8.07909972 L0,8.07909972 L0.613217893,1.72833048 L1.34141414,1.72833048 C1.37974026,1.96354416 1.53304473,2.12035328 1.76300144,2.19875783 C1.99295815,2.27765242 2.26124098,2.3168547 2.52952381,2.3168547 L20.9648658,2.3168547 C21.5014315,2.3168547 22.0763232,2.19875783 22.1529755,1.72833048 L22.8811717,1.72833048 L23.4943896,8.07909972 L22.8045195,8.07909972 C22.2296277,4.62929915 21.5397576,3.72764672 20.0067128,3.72764672 L13.3379683,3.72764672 L13.3379683,23.0940627" id="Fill-1"></path>
                        <path d="M27.0582395,23.839396 C27.0582395,25.4461994 27.6331313,25.9558291 29.5494372,25.9558291 L31.0058297,25.9558291 L31.0058297,26.7006724 L21.9220606,26.7006724 L21.9220606,25.9558291 C23.8766926,25.9171168 24.4899105,25.0933789 24.4899105,23.0156581 L24.4899105,13.9594416 L21.9220606,13.0185869 L21.9220606,12.3526382 L26.2912381,10.784547 L27.0582395,10.784547 L27.0582395,14.9394986 L27.1348918,14.9394986 C29.0511977,11.7254017 29.5111111,10.9800684 30.775873,10.9800684 C31.2357864,10.9800684 31.3507648,11.0192707 32.078961,11.3333789 C32.4622222,11.489698 33.1520924,11.6469972 34.0719192,11.9209231 L33.1520924,14.2735499 C32.5772006,14.1951453 31.8490043,13.9986439 31.1208081,13.6463134 C30.6992208,13.449812 30.2393074,13.2542906 29.7793939,13.2542906 C29.0895238,13.2542906 28.6674574,13.7247179 28.2846753,14.2735499 C27.7859567,14.9787009 27.3648485,15.6456296 27.0582395,16.2336638 L27.0582395,23.839396" id="Fill-2"></path>
                        <path d="M39.3987706,1.72833048 C40.3185974,1.72833048 41.0851198,2.39476923 41.0851198,3.21801709 C41.0851198,4.04126496 40.3185974,4.7077037 39.3987706,4.7077037 C38.4789437,4.7077037 37.7507475,4.04126496 37.7507475,3.21801709 C37.7507475,2.39476923 38.4789437,1.72833048 39.3987706,1.72833048 Z M40.9701414,23.7212991 C40.9701414,25.0933789 41.6983377,25.9558291 43.7296219,25.9558291 L43.7296219,26.7006724 L35.2212237,26.7006724 L35.2212237,25.9558291 C37.5591169,25.9558291 38.4022915,25.1717835 38.4022915,23.0940627 L38.4022915,15.2144046 C38.4022915,13.6855157 38.2106609,13.4890142 37.2141818,13.2934929 L35.4128543,12.9401823 L35.4128543,12.3134359 L40.3952496,10.5488433 L40.9701414,10.5488433 L40.9701414,23.7212991 Z" id="Fill-3"></path>
                        <path d="M50.551671,23.2900741 C50.551671,25.4461994 51.0499105,25.9558291 53.1195209,25.9558291 L53.1195209,26.7006724 L45.4159711,26.7006724 L45.4159711,25.9558291 C47.1023203,25.9558291 47.9838211,25.0149744 47.9838211,23.4860855 L47.9838211,15.2536068 C47.9838211,13.8031225 47.8305166,13.5287066 46.8340375,13.3326952 L45.5309495,13.0582792 L45.5309495,12.4305527 L49.9384531,10.784547 L50.551671,10.784547 L50.551671,13.8423248 C53.1195209,12.1958291 55.2657835,10.7453447 57.1437633,10.7453447 C59.7499394,10.7453447 61.244658,12.7054587 61.244658,16.6256866 C61.244658,21.8395897 60.9768543,22.859339 60.9385281,24.3882279 C60.900202,25.4461994 61.5129408,25.9558291 63.0847908,25.9558291 L63.9274863,25.9558291 L63.9274863,26.7006724 L55.6873709,26.7006724 L55.6873709,25.9558291 C56.7993074,25.9171168 57.4503723,25.6422108 57.8719596,25.2109858 C58.6001558,24.4661425 58.6768081,21.6043761 58.6768081,16.3904729 C58.6768081,13.2542906 57.1820895,12.2742336 55.6490447,12.2742336 C54.4226089,12.2742336 52.5446291,13.3718974 50.551671,14.7831795 L50.551671,23.2900741" id="Fill-4"></path>
                        <path d="M69.2160115,1.72833048 C70.1358384,1.72833048 70.9028398,2.39476923 70.9028398,3.21801709 C70.9028398,4.04126496 70.1358384,4.7077037 69.2160115,4.7077037 C68.2961847,4.7077037 67.5679885,4.04126496 67.5679885,3.21801709 C67.5679885,2.39476923 68.2961847,1.72833048 69.2160115,1.72833048 Z M70.7873824,23.7212991 C70.7873824,25.0933789 71.5155786,25.9558291 73.5468629,25.9558291 L73.5468629,26.7006724 L65.0384646,26.7006724 L65.0384646,25.9558291 C67.3763579,25.9558291 68.2195325,25.1717835 68.2195325,23.0940627 L68.2195325,15.2144046 C68.2195325,13.6855157 68.0279019,13.4890142 67.0314228,13.2934929 L65.2300952,12.9401823 L65.2300952,12.3134359 L70.2124906,10.5488433 L70.7873824,10.5488433 L70.7873824,23.7212991 Z" id="Fill-5"></path>
                        <path d="M84.9301991,11.1765698 L84.3169812,12.9014701 L79.4490851,12.9014701 L79.4490851,22.0356011 C79.4490851,24.5053447 81.1737605,25.3290826 81.979088,25.3290826 C82.8217835,25.3290826 83.5883059,24.6621538 84.3169812,23.3689687 L84.9301991,23.9565128 C84.0103723,25.9950313 82.5156537,27.1710997 80.7521732,27.1710997 C78.4909322,27.1710997 76.8812352,25.250188 76.8812352,22.6236353 L76.8812352,12.9014701 L75.1182338,12.9014701 L75.1182338,12.2742336 C76.6129524,11.5289003 77.9160404,9.72608547 78.7975411,7.29554416 L79.4490851,7.29554416 L79.4490851,11.1765698 L84.9301991,11.1765698" id="Fill-6"></path>
                        <path d="M99.3786667,15.5275328 C100.52845,12.5486496 99.800254,11.9601254 97.539013,11.8822108 L97.539013,11.1765698 L103.901149,11.1765698 L103.901149,11.8822108 C102.329778,12.0782222 101.448277,13.175886 100.720081,15.0183932 L94.2046407,31.6401595 C93.0548571,34.5411282 92.1733564,35.8352934 90.8314632,35.8352934 C89.9116364,35.8352934 89.2605714,35.2472593 89.2605714,34.4632137 C89.2605714,32.8559202 91.4834863,33.247943 92.4416392,32.267886 C92.8627475,31.836661 93.4381183,30.8174017 93.7442482,30.0328661 L94.8945108,27.0926952 L88.9534834,14.1951453 C88.2257662,12.5878519 87.535417,11.9209231 85.9257201,11.8822108 L85.9257201,11.1765698 L93.6297489,11.1765698 L93.6297489,11.8822108 C91.2913766,11.9209231 91.0235729,12.6270541 91.7896162,14.2735499 L96.1209466,23.839396 L99.3786667,15.5275328" id="Fill-7"></path>
                        <path d="M132.876173,8.74602849 C131.610932,5.0997265 128.314886,2.70838746 124.137339,2.70838746 C117.736398,2.70838746 113.750961,7.45186325 113.750961,14.0383362 C113.750961,21.1339487 118.732877,26.3483419 124.559405,26.3483419 C127.58669,26.3483419 131.304802,25.2893903 133.910978,20.5459145 L134.639175,20.5459145 C134.140935,22.3100171 133.105651,24.7405584 132.185824,26.2694473 C129.732952,25.9171168 128.046603,27.3283989 123.524121,27.3283989 C115.743919,27.3283989 110.147827,22.0748034 110.147827,14.8223818 C110.147827,7.2171396 115.896745,1.72833048 123.907382,1.72833048 C128.736473,1.72833048 130.806563,3.29691168 131.994193,3.29691168 C132.41626,3.29691168 132.607411,3.17881481 132.684063,3.06120798 L133.259434,3.06120798 L133.60389,8.74602849 L132.876173,8.74602849" id="Fill-8"></path>
                        <path d="M144.411856,26.230245 C146.673097,26.230245 149.240947,23.8785983 149.240947,19.9578803 C149.240947,15.4888205 146.557639,11.6861994 143.338724,11.6861994 C140.808722,11.6861994 138.471307,14.3519544 138.471307,17.7233504 C138.471307,22.4668262 141.11533,26.230245 144.411856,26.230245 Z M143.87529,10.7453447 C148.551076,10.7453447 152.115405,14.3127521 152.115405,18.9778234 C152.115405,23.6036923 148.551076,27.1710997 143.989789,27.1710997 C139.237351,27.1710997 135.596369,23.6428946 135.596369,19.0562279 C135.596369,13.6463134 139.889374,10.7453447 143.87529,10.7453447 Z" id="Fill-9"></path>
                        <path d="M158.821997,23.6036923 C158.821997,25.2109858 159.550193,25.9558291 161.044912,25.9558291 L161.696456,25.9558291 L161.696456,26.7006724 L153.073079,26.7006724 L153.073079,25.9558291 C155.525951,25.9558291 156.254147,25.2109858 156.254147,23.3292764 L156.254147,4.39408547 C156.254147,3.29691168 156.139169,2.94360114 155.065558,2.82648433 L153.341362,2.62998291 L153.341362,1.96354416 L158.247105,0.356250712 L158.821997,0.356250712 L158.821997,23.6036923" id="Fill-10"></path>
                        <path d="M168.882124,23.6036923 C168.882124,25.2109858 169.61032,25.9558291 171.105039,25.9558291 L171.756583,25.9558291 L171.756583,26.7006724 L163.133206,26.7006724 L163.133206,25.9558291 C165.586078,25.9558291 166.314274,25.2109858 166.314274,23.3292764 L166.314274,4.39408547 C166.314274,3.29691168 166.199296,2.94360114 165.125685,2.82648433 L163.401489,2.62998291 L163.401489,1.96354416 L168.307232,0.356250712 L168.882124,0.356250712 L168.882124,23.6036923" id="Fill-11"></path>
                        <path d="M183.752179,15.7240342 C183.330592,13.175886 181.797547,11.489698 179.957893,11.489698 C178.693131,11.489698 176.776825,12.0782222 175.895325,15.7240342 L183.752179,15.7240342 Z M175.780346,16.7432934 C175.703215,17.3313276 175.626563,17.8801595 175.626563,18.3897892 C175.626563,22.4668262 178.424848,25.2109858 181.452612,25.2109858 C183.368918,25.2109858 184.863636,24.4274302 186.320508,22.6628376 L186.741616,23.133265 C185.131919,25.2109858 182.717374,27.1710997 179.919567,27.1710997 C176.163128,27.1710997 173.250343,23.6820969 173.250343,19.1346325 C173.250343,14.9787009 175.971977,10.7453447 180.647763,10.7453447 C185.821789,10.7453447 185.706811,14.5479658 186.971573,15.841641 L186.971573,16.7432934 L175.780346,16.7432934 Z" id="Fill-12"></path>
                        <path d="M196.054384,11.489698 C194.597991,11.489698 192.33675,12.3134359 192.33675,15.9587578 C192.33675,18.2721823 193.486534,21.3691624 196.399319,21.3691624 C198.622234,21.3691624 200.078626,19.487453 200.078626,16.7824957 C200.078626,13.4106097 198.392277,11.489698 196.054384,11.489698 Z M197.127515,34.7376296 C200.385235,34.7376296 203.451325,32.541812 203.451325,30.0720684 C203.451325,28.621584 202.263215,27.8772308 200.883475,27.7596239 C199.886996,27.6415271 195.057905,27.6023248 193.945968,27.4460057 C192.873316,28.7396809 191.454771,29.2885128 191.454771,30.8174017 C191.454771,32.6599088 193.984773,34.7376296 197.127515,34.7376296 Z M205.827544,14.3911567 C205.252652,14.3519544 203.451325,14.1951453 201.994932,13.9202393 C202.224889,14.3519544 202.646955,15.1752023 202.646955,16.4291852 C202.646955,19.3306439 200.194084,22.1140057 195.939405,22.1140057 C195.211209,22.1140057 194.865795,22.0356011 194.176404,21.8003875 C193.563186,22.4668262 191.838511,22.8985413 191.838511,23.7997037 C191.838511,24.7797607 193.486534,25.1717835 197.319146,25.2109858 C201.650476,25.250188 203.145195,25.4461994 204.294499,26.6222678 C205.214326,27.5631225 205.444283,28.5431795 205.444283,29.3669174 C205.444283,31.9150655 202.071584,35.8352934 194.981253,35.8352934 C190.994857,35.8352934 189.078551,34.0314986 189.078551,32.1105869 C189.078551,29.8373447 191.416924,29.4840342 193.179925,27.2891966 C191.110315,27.0926952 189.538465,25.7598177 189.538465,24.5053447 C189.538465,22.7020399 192.106794,22.6236353 193.447729,21.6043761 C191.110315,20.6635214 189.7689,18.9778234 189.7689,16.7432934 C189.7689,13.3718974 192.720012,10.7453447 196.514297,10.7453447 C198.277778,10.7453447 199.772017,11.2941766 200.806823,12.3134359 C202.531498,12.3134359 204.141674,12.1174245 205.827544,11.9209231 L205.827544,14.3911567 Z" id="Fill-13"></path>
                        <path d="M217.670315,15.7240342 C217.248727,13.175886 215.715683,11.489698 213.876029,11.489698 C212.610788,11.489698 210.694482,12.0782222 209.81346,15.7240342 L217.670315,15.7240342 Z M209.698003,16.7432934 C209.621351,17.3313276 209.544698,17.8801595 209.544698,18.3897892 C209.544698,22.4668262 212.342984,25.2109858 215.370747,25.2109858 C217.287053,25.2109858 218.781772,24.4274302 220.238165,22.6628376 L220.659752,23.133265 C219.050055,25.2109858 216.635509,27.1710997 213.837703,27.1710997 C210.081264,27.1710997 207.168479,23.6820969 207.168479,19.1346325 C207.168479,14.9787009 209.890113,10.7453447 214.565899,10.7453447 C219.739925,10.7453447 219.624947,14.5479658 220.889709,15.841641 L220.889709,16.7432934 L209.698003,16.7432934 Z" id="Fill-14"></path>
                        <path d="M27.1497431,36.7869288 L27.1497431,35.4109288 C27.1497431,34.8111339 27.092254,34.658245 26.2759076,34.6112023 L26.2759076,34.39951 L28.8519019,34.39951 L28.8519019,34.6112023 C28.06957,34.658245 27.9775873,34.7993732 27.9775873,35.4109288 L27.9775873,38.5039886 C27.9775873,39.1630769 28.138557,39.2566724 28.8519019,39.3042051 L28.8519019,39.5158974 L26.2759076,39.5158974 L26.2759076,39.3042051 C26.9772756,39.2566724 27.1497431,39.1630769 27.1497431,38.5039886 L27.1497431,37.0809459 L24.5167388,37.0809459 L24.5167388,38.5039886 C24.5167388,39.1630769 24.6777085,39.2566724 25.3905743,39.3042051 L25.3905743,39.5158974 L22.8150592,39.5158974 L22.8150592,39.3042051 C23.5159481,39.2566724 23.6888947,39.1630769 23.6888947,38.5039886 L23.6888947,35.4109288 C23.6888947,34.7523305 23.5274459,34.658245 22.8150592,34.6112023 L22.8150592,34.39951 L25.3905743,34.39951 L25.3905743,34.6112023 C24.6892063,34.658245 24.5167388,34.7405698 24.5167388,35.4109288 L24.5167388,36.7869288 L27.1497431,36.7869288" id="Fill-15"></path>
                        <path d="M33.3307879,36.9750997 L34.7450216,36.9750997 L34.0551515,35.0581083 L33.3307879,36.9750997 Z M34.5955498,34.2343704 L36.1712323,38.6098348 C36.3666955,39.1743476 36.401189,39.2689231 36.9990765,39.3042051 L36.9990765,39.5158974 L34.5955498,39.5158974 L34.5955498,39.3042051 C34.9864762,39.2924444 35.3778817,39.2801937 35.3778817,38.9508946 C35.3778817,38.7749744 35.2973968,38.52751 35.216912,38.304057 L34.8604791,37.3161595 L33.2043117,37.3161595 L32.9398615,37.9982792 C32.8593766,38.2104615 32.7214026,38.562792 32.7214026,38.8572991 C32.7214026,39.2218803 33.1008312,39.2566724 33.5147532,39.3042051 L33.5147532,39.5158974 L31.5371255,39.5158974 L31.5371255,39.3042051 C32.1235152,39.1865983 32.1925022,38.9866667 32.4569524,38.3158177 L33.882684,34.5759202 L33.7677056,34.2343704 L34.5955498,34.2343704 Z" id="Fill-16"></path>
                        <path d="M41.3399885,37.0809459 L41.8573911,37.0809459 C42.4672554,37.0809459 43.0761616,36.7986895 43.0761616,35.8343134 C43.0761616,34.8459259 42.351798,34.5759202 41.8458932,34.5759202 C41.6509091,34.5759202 41.4549668,34.5876809 41.3399885,34.5994416 L41.3399885,37.0809459 Z M41.3399885,38.4691966 C41.3399885,39.1630769 41.4089755,39.3042051 41.9033824,39.3042051 L42.2372987,39.3042051 L42.2372987,39.5158974 L39.695798,39.5158974 L39.695798,39.3042051 L39.8797633,39.3042051 C40.4431573,39.3042051 40.5121443,39.0689915 40.5121443,38.6220855 L40.5121443,35.2928319 C40.5121443,35.1639544 40.5121443,34.9757835 40.4201616,34.8581766 C40.3281789,34.7288091 40.2591919,34.7288091 39.6843001,34.6935271 L39.6843001,34.4818348 C40.1672092,34.434792 40.8915729,34.3407066 41.7079192,34.3407066 C42.7197287,34.3407066 43.9389784,34.5759202 43.9389784,35.810792 C43.9389784,36.7751681 43.2146147,37.0339031 42.846684,37.1632707 C43.0651429,37.3632023 43.1341299,37.4342564 43.5475729,38.339339 C43.9155036,39.1513162 44.1344416,39.3154758 44.5598615,39.3865299 L44.5598615,39.5982222 C43.7660317,39.5624501 43.2836017,39.3747692 42.8002136,38.5985641 C42.6742165,38.3981425 42.1798095,37.4690484 42.0758499,37.2931282 L41.3399885,37.2931282 L41.3399885,38.4691966 Z" id="Fill-17"></path>
                        <path d="M47.3188629,34.2230997 L47.4798326,34.2230997 C47.5373218,34.3054245 47.5833131,34.3524672 47.6523001,34.3754986 C47.7212872,34.39951 47.7902742,34.39951 47.8822569,34.39951 L51.2401039,34.39951 C51.5505455,34.39951 51.6080346,34.3642279 51.6655238,34.2230997 L51.8264935,34.2230997 L51.9184762,35.5402963 L51.7345108,35.5402963 C51.5735411,34.7993732 51.4700606,34.6935271 50.9411602,34.6935271 L49.9863608,34.6935271 L49.9863608,38.562792 C49.9863608,39.233641 50.0668456,39.2566724 50.9296623,39.3042051 L50.9296623,39.5158974 L48.2156941,39.5158974 L48.2156941,39.3042051 C49.0780317,39.2689231 49.1585166,39.233641 49.1585166,38.6098348 L49.1585166,34.6935271 L48.1237114,34.6935271 C47.6752958,34.6935271 47.6408023,34.7170484 47.4108456,35.5402963 L47.2153824,35.5402963 L47.3188629,34.2230997" id="Fill-18"></path>
                        <path d="M58.7251948,34.39951 L58.7251948,35.4344501 L58.5177547,35.4344501 C58.4372698,34.881698 58.3912785,34.8346553 58.3342684,34.7758519 C58.2767792,34.7170484 58.1043117,34.6700057 57.7818932,34.6700057 L56.6321097,34.6700057 L56.6321097,36.6693219 L57.8973506,36.6693219 C58.3107937,36.6693219 58.5067359,36.5634758 58.5177547,36.1165698 L58.7251948,36.1165698 L58.7251948,37.5513732 L58.5177547,37.5513732 C58.4837403,37.0221425 58.3682828,36.928057 57.9428629,36.928057 L56.6321097,36.928057 L56.6321097,38.7396923 C56.6321097,39.1865983 56.6321097,39.2454017 57.3909668,39.3042051 L57.3909668,39.5158974 L55.1488889,39.5158974 L55.1488889,39.3042051 C55.7467763,39.2454017 55.8042655,39.1513162 55.8042655,38.6926496 L55.8042655,35.328604 C55.8042655,34.7405698 55.7582742,34.6817664 55.1488889,34.6112023 L55.1488889,34.39951 L58.7251948,34.39951" id="Fill-19"></path>
                        <path d="M64.4161443,34.39951 C63.2318672,34.39951 62.5879885,35.5638177 62.5879885,36.7986895 C62.5879885,38.0923647 62.89843,38.6098348 63.2203694,38.9396239 C63.5653045,39.2924444 63.9792266,39.457094 64.4276421,39.457094 C65.3019567,39.457094 66.2907706,38.786245 66.2907706,36.9050256 C66.2907706,35.0933903 65.4049582,34.39951 64.4161443,34.39951 Z M64.4506378,34.1995783 C65.773368,34.1995783 67.1876017,35.0816296 67.1876017,36.8927749 C67.1876017,38.8685698 65.7039019,39.6570256 64.43914,39.6570256 C63.1858759,39.6570256 61.6911573,38.8685698 61.6911573,36.8927749 C61.6911573,35.0816296 63.1743781,34.1995783 64.4506378,34.1995783 Z" id="Fill-20"></path>
                        <path d="M72.0162136,37.0809459 L72.5336162,37.0809459 C73.1430014,37.0809459 73.7523867,36.7986895 73.7523867,35.8343134 C73.7523867,34.8459259 73.0280231,34.5759202 72.5221183,34.5759202 C72.3266551,34.5759202 72.1311919,34.5876809 72.0162136,34.5994416 L72.0162136,37.0809459 Z M72.0162136,38.4691966 C72.0162136,39.1630769 72.0852006,39.3042051 72.5796075,39.3042051 L72.9130447,39.3042051 L72.9130447,39.5158974 L70.3720231,39.5158974 L70.3720231,39.3042051 L70.5559885,39.3042051 C71.1193824,39.3042051 71.1883694,39.0689915 71.1883694,38.6220855 L71.1883694,35.2928319 C71.1883694,35.1639544 71.1883694,34.9757835 71.0963867,34.8581766 C71.004404,34.7288091 70.935417,34.7288091 70.3605253,34.6935271 L70.3605253,34.4818348 C70.8434343,34.434792 71.567798,34.3407066 72.3841443,34.3407066 C73.3959538,34.3407066 74.6152035,34.5759202 74.6152035,35.810792 C74.6152035,36.7751681 73.8903608,37.0339031 73.52243,37.1632707 C73.7408889,37.3632023 73.8098759,37.4342564 74.223798,38.339339 C74.5917287,39.1513162 74.8101876,39.3154758 75.2356075,39.3865299 L75.2356075,39.5982222 C74.4422569,39.5624501 73.9593478,39.3747692 73.4764387,38.5985641 C73.3499625,38.3981425 72.8555556,37.4690484 72.752075,37.2931282 L72.0162136,37.2931282 L72.0162136,38.4691966 Z" id="Fill-21"></path>
                        <path d="M79.880733,38.7161709 C79.880733,38.9278632 79.880733,39.0332194 79.9152266,39.1155442 C79.9957114,39.2566724 80.4211313,39.2689231 80.5935988,39.2689231 C82.6402136,39.2689231 82.9506551,37.7042621 82.9506551,36.8810142 C82.9506551,36.3635442 82.8241789,35.2928319 81.8353651,34.8459259 C81.2609524,34.5876809 80.5246118,34.5994416 79.880733,34.6112023 L79.880733,38.7161709 Z M78.1555786,39.3042051 C78.9264127,39.2689231 79.0524098,39.1978689 79.0524098,38.5397607 L79.0524098,35.4226895 C79.0524098,34.8111339 78.9839019,34.7052877 78.1555786,34.6935271 L78.1555786,34.4818348 C79.0068975,34.3877493 79.9382222,34.3407066 80.6625859,34.3407066 C81.3179625,34.3407066 83.8479654,34.4700741 83.8479654,36.8810142 C83.8479654,38.3981425 82.6632092,39.1865983 81.9393247,39.3512479 C81.352456,39.4801254 80.7310938,39.5158974 80.1676999,39.5158974 L78.1555786,39.5158974 L78.1555786,39.3042051 Z" id="Fill-22"></path>
                        <path d="M101.46217,35.7402279 L101.289703,35.7402279 C101.071244,35.3050826 100.622828,34.4578234 99.4845426,34.4578234 C98.3112843,34.4578234 97.563925,35.6579031 97.563925,37.0574245 C97.563925,38.6338462 98.541241,39.4335726 99.3690851,39.4335726 C100.496352,39.4335726 101.163227,38.5863134 101.416179,38.2570142 L101.611642,38.2570142 C101.439175,38.7396923 101.335694,38.9508946 100.967284,39.5624501 C100.714811,39.5394188 100.587856,39.5394188 100.311908,39.5624501 C99.6455123,39.6212536 99.518557,39.6335043 99.3235729,39.6335043 C97.6444098,39.6335043 96.655596,38.52751 96.655596,37.0103818 C96.655596,35.2580399 98.1043232,34.211339 99.4150765,34.211339 C100.288912,34.211339 100.72583,34.622963 100.99028,34.622963 C101.128254,34.622963 101.174724,34.5759202 101.232214,34.5171168 L101.416179,34.5171168 L101.46217,35.7402279" id="Fill-23"></path>
                        <path d="M107.555544,34.39951 C106.371267,34.39951 105.727388,35.5638177 105.727388,36.7986895 C105.727388,38.0923647 106.037351,38.6098348 106.359769,38.9396239 C106.704704,39.2924444 107.118626,39.457094 107.567042,39.457094 C108.440877,39.457094 109.429691,38.786245 109.429691,36.9050256 C109.429691,35.0933903 108.544358,34.39951 107.555544,34.39951 Z M107.590517,34.1995783 C108.912289,34.1995783 110.327001,35.0816296 110.327001,36.8927749 C110.327001,38.8685698 108.843781,39.6570256 107.57854,39.6570256 C106.325276,39.6570256 104.830557,38.8685698 104.830557,36.8927749 C104.830557,35.0816296 106.313778,34.1995783 107.590517,34.1995783 Z" id="Fill-24"></path>
                        <path d="M114.914159,34.39951 L118.294522,38.2339829 L118.294522,35.2928319 C118.294522,34.9757835 118.294522,34.6700057 117.915094,34.6347236 C117.834609,34.622963 117.490153,34.6112023 117.420687,34.6112023 L117.420687,34.39951 L119.479278,34.39951 L119.479278,34.6112023 C118.73144,34.5876809 118.662932,34.8111339 118.662932,35.2928319 L118.662932,39.5511795 L118.386984,39.5511795 L114.672704,35.328604 L114.672704,38.4691966 C114.672704,39.2566724 114.810678,39.2924444 115.627025,39.3042051 L115.627025,39.5158974 L113.488427,39.5158974 L113.488427,39.3042051 C114.224289,39.3277265 114.304773,39.1155442 114.304773,38.6220855 L114.304773,35.328604 C114.304773,34.658245 113.982355,34.6347236 113.499925,34.6112023 L113.499925,34.39951 L114.914159,34.39951" id="Fill-25"></path>
                        <path d="M123.985951,34.39951 L127.366794,38.2339829 L127.366794,35.2928319 C127.366794,34.9757835 127.366794,34.6700057 126.987365,34.6347236 C126.90688,34.622963 126.561945,34.6112023 126.492958,34.6112023 L126.492958,34.39951 L128.55155,34.39951 L128.55155,34.6112023 C127.803711,34.5876809 127.734724,34.8111339 127.734724,35.2928319 L127.734724,39.5511795 L127.458776,39.5511795 L123.744496,35.328604 L123.744496,38.4691966 C123.744496,39.2566724 123.88247,39.2924444 124.699296,39.3042051 L124.699296,39.5158974 L122.560698,39.5158974 L122.560698,39.3042051 C123.29656,39.3277265 123.377045,39.1155442 123.377045,38.6220855 L123.377045,35.328604 C123.377045,34.658245 123.054626,34.6347236 122.571717,34.6112023 L122.571717,34.39951 L123.985951,34.39951" id="Fill-26"></path>
                        <path d="M133.12673,36.7751681 L134.368496,36.7751681 C134.782418,36.7751681 134.920392,36.7751681 134.966384,36.1400912 L135.19682,36.1400912 L135.19682,37.7277835 L134.966384,37.7277835 C134.943388,37.0809459 134.851405,37.0339031 134.288012,37.0339031 L133.12673,37.0339031 L133.12673,38.7161709 C133.12673,39.2218803 133.149726,39.2218803 133.644133,39.2218803 L134.517968,39.2218803 C135.03585,39.2218803 135.299821,39.1513162 135.518759,38.269265 L135.737218,38.269265 L135.633737,39.5158974 L131.48254,39.5158974 L131.48254,39.3154758 C132.218401,39.3389972 132.298886,39.1155442 132.298886,38.6338462 L132.298886,35.2928319 C132.298886,34.6935271 132.125939,34.5994416 131.48254,34.6112023 L131.48254,34.39951 L135.415278,34.39951 L135.460791,35.5167749 L135.254309,35.5167749 C135.127354,34.7405698 134.943388,34.658245 134.380473,34.658245 L133.12673,34.658245 L133.12673,36.7751681" id="Fill-27"></path>
                        <path d="M143.95817,35.7402279 L143.785703,35.7402279 C143.567244,35.3050826 143.118828,34.4578234 141.980543,34.4578234 C140.807763,34.4578234 140.059925,35.6579031 140.059925,37.0574245 C140.059925,38.6338462 141.037241,39.4335726 141.865564,39.4335726 C142.992352,39.4335726 143.659227,38.5863134 143.912179,38.2570142 L144.107642,38.2570142 C143.935175,38.7396923 143.831694,38.9508946 143.463284,39.5624501 C143.210811,39.5394188 143.084335,39.5394188 142.807908,39.5624501 C142.141512,39.6212536 142.014557,39.6335043 141.819573,39.6335043 C140.14041,39.6335043 139.151596,38.52751 139.151596,37.0103818 C139.151596,35.2580399 140.600323,34.211339 141.911076,34.211339 C142.784912,34.211339 143.222309,34.622963 143.48628,34.622963 C143.624254,34.622963 143.670724,34.5759202 143.728214,34.5171168 L143.912179,34.5171168 L143.95817,35.7402279" id="Fill-28"></path>
                        <path d="M147.487527,34.2230997 L147.648496,34.2230997 C147.705986,34.3054245 147.751977,34.3524672 147.820964,34.3754986 C147.889951,34.39951 147.958938,34.39951 148.050921,34.39951 L151.408289,34.39951 C151.719209,34.39951 151.776698,34.3642279 151.833709,34.2230997 L151.995157,34.2230997 L152.086661,35.5402963 L151.903175,35.5402963 C151.742205,34.7993732 151.638724,34.6935271 151.109345,34.6935271 L150.155025,34.6935271 L150.155025,38.562792 C150.155025,39.233641 150.235509,39.2566724 151.098326,39.3042051 L151.098326,39.5158974 L148.384358,39.5158974 L148.384358,39.3042051 C149.246696,39.2689231 149.32718,39.233641 149.32718,38.6098348 L149.32718,34.6935271 L148.292375,34.6935271 C147.84396,34.6935271 147.809466,34.7170484 147.579509,35.5402963 L147.384046,35.5402963 L147.487527,34.2230997" id="Fill-29"></path>
                        <path d="M157.76755,34.6112023 C156.939706,34.6464843 156.939706,34.7758519 156.939706,35.4932536 L156.939706,38.4103932 C156.939706,39.1630769 157.100675,39.2566724 157.81402,39.3042051 L157.81402,39.5158974 L155.284017,39.5158974 L155.284017,39.3042051 C155.996883,39.2801937 156.123359,39.1865983 156.123359,38.3863818 L156.123359,35.5050142 C156.123359,34.7523305 155.96239,34.658245 155.249524,34.6112023 L155.249524,34.39951 L157.76755,34.39951 L157.76755,34.6112023" id="Fill-30"></path>
                        <path d="M166.16097,35.7402279 L165.988981,35.7402279 C165.770522,35.3050826 165.321628,34.4578234 164.183342,34.4578234 C163.010563,34.4578234 162.263203,35.6579031 162.263203,37.0574245 C162.263203,38.6338462 163.240519,39.4335726 164.068364,39.4335726 C165.195631,39.4335726 165.862026,38.5863134 166.115457,38.2570142 L166.310921,38.2570142 C166.138453,38.7396923 166.034973,38.9508946 165.666563,39.5624501 C165.414089,39.5394188 165.287134,39.5394188 165.011186,39.5624501 C164.344312,39.6212536 164.217835,39.6335043 164.022851,39.6335043 C162.343688,39.6335043 161.354874,38.52751 161.354874,37.0103818 C161.354874,35.2580399 162.803602,34.211339 164.114355,34.211339 C164.98819,34.211339 165.425108,34.622963 165.689558,34.622963 C165.827532,34.622963 165.874003,34.5759202 165.931492,34.5171168 L166.115457,34.5171168 L166.16097,35.7402279" id="Fill-31"></path>
                        <path d="M172.16284,34.39951 L172.16284,34.6112023 C171.403983,34.6464843 171.289004,34.8111339 171.289004,35.4109288 L171.289004,37.5513732 C171.289004,37.9282051 171.289004,38.339339 171.449495,38.6451168 C171.57645,38.8920912 171.932883,39.2801937 172.726713,39.2801937 C173.197645,39.2801937 173.922488,39.1513162 174.186459,38.4691966 C174.312935,38.1634188 174.312935,37.6454587 174.312935,37.3043989 L174.312935,35.5638177 C174.312935,34.7636011 174.312935,34.6347236 173.427602,34.6112023 L173.427602,34.39951 L175.485714,34.39951 L175.485714,34.6112023 C174.726857,34.5876809 174.658349,34.8111339 174.658349,35.2928319 L174.658349,37.410735 C174.658349,37.7635556 174.658349,38.3515897 174.450909,38.7749744 C174.094476,39.5158974 173.163631,39.6923077 172.576762,39.6923077 C172.139844,39.6923077 171.105039,39.6212536 170.645126,38.7749744 C170.472179,38.4574359 170.472179,37.9747578 170.472179,37.6925014 L170.472179,35.3874074 C170.472179,34.7636011 170.46116,34.658245 169.621339,34.6112023 L169.621339,34.39951 L172.16284,34.39951" id="Fill-32"></path>
                        <path d="M178.716127,34.2230997 L178.877097,34.2230997 C178.935065,34.3054245 178.980577,34.3524672 179.050043,34.3754986 C179.118551,34.39951 179.188017,34.39951 179.279521,34.39951 L182.637368,34.39951 C182.94781,34.39951 183.005778,34.3642279 183.062788,34.2230997 L183.224237,34.2230997 L183.31574,35.5402963 L183.131775,35.5402963 C182.970805,34.7993732 182.867325,34.6935271 182.338424,34.6935271 L181.384104,34.6935271 L181.384104,38.562792 C181.384104,39.233641 181.464589,39.2566724 182.327405,39.3042051 L182.327405,39.5158974 L179.613437,39.5158974 L179.613437,39.3042051 C180.475296,39.2689231 180.555781,39.233641 180.555781,38.6098348 L180.555781,34.6935271 L179.520975,34.6935271 C179.073039,34.6935271 179.038066,34.7170484 178.808589,35.5402963 L178.613126,35.5402963 L178.716127,34.2230997" id="Fill-33"></path>
                    </g>
                </g>
            </g>
        </g>
    </g>
</svg>