<?xml version="1.0" encoding="UTF-8"?>
<svg width="10px" height="15px" viewBox="0 0 10 15" version="1.1" xmlns="http://www.w3.org/2000/svg" xmlns:xlink="http://www.w3.org/1999/xlink">
    <g id="Academic-Program---Round-1---✔️" stroke="none" stroke-width="1" fill="" fill-rule="evenodd">
        <g id="Academic-Program" transform="translate(-627.000000, -3760.000000)" fill="">
            <g id="Group-15" transform="translate(-3.000000, 3657.000000)">
                <g id="Group-13" transform="translate(630.000000, 93.000000)">
                    <path d="M5,10 C7.75988287,10 10,12.2412109 10,15.0024414 C10,15.8886719 9.7510981,16.7382812 9.35578331,17.4487305 L5.27818448,24.8461914 C5.22693997,24.934082 5.10248902,25 5,25 C4.87554905,25 4.77306003,24.934082 4.72181552,24.8461914 L0.644216691,17.4487305 C0.226939971,16.7382812 0,15.8886719 0,15.0024414 C0,12.2412109 2.24011713,10 5,10 Z M5,16.8774414 C6.03953148,16.8774414 6.87408492,16.0424805 6.87408492,15.0024414 C6.87408492,13.9550781 6.03953148,13.1274414 5,13.1274414 C3.96046852,13.1274414 3.12591508,13.9550781 3.12591508,15.0024414 C3.12591508,16.0424805 3.96046852,16.8774414 5,16.8774414 Z" id="location"></path>
                </g>
            </g>
        </g>
    </g>
</svg>