<?xml version="1.0" encoding="UTF-8"?>
<svg width="38px" height="25px" viewBox="0 0 38 25" version="1.1" xmlns="http://www.w3.org/2000/svg" xmlns:xlink="http://www.w3.org/1999/xlink">
    <g id="Homepage---Approved" stroke="none" stroke-width="1" fill="" fill-rule="evenodd">
        <g id="Homepage---Hovers" transform="translate(-1305.000000, -31.000000)" fill="">
            <g id="Group">
                <path d="M1316.27772,33.0489377 C1312.72348,32.6125327 1309.48562,35.143484 1309.04901,38.6994336 C1308.61239,42.2553832 1311.14178,45.4944633 1314.69601,45.9308683 C1315.97017,46.0873154 1317.18802,45.8707844 1318.25543,45.3548496 L1321.42668,49.4450014 C1321.67771,49.7567563 1322.03742,49.9456464 1322.38949,49.9888751 C1322.76671,50.0351917 1323.14467,49.9368763 1323.45528,49.6940816 C1324.08488,49.2095214 1324.19712,48.2953739 1323.70448,47.6645066 L1320.50499,43.596427 C1321.26358,42.6850231 1321.7682,41.5551469 1321.92472,40.2803725 C1322.36134,36.7244229 1319.83195,33.4853428 1316.27772,33.0489377 Z M1314.95954,43.783789 C1312.59564,43.4935384 1310.90448,41.3278744 1311.19487,38.9628325 C1311.48526,36.5977905 1313.65011,34.9055847 1316.01401,35.1958352 C1318.37791,35.4860857 1320.06907,37.6517498 1319.77868,40.0167917 C1319.48829,42.3818337 1317.32344,44.0740395 1314.95954,43.783789 Z M1326.20034,34.5164554 L1339.0009,34.5164554 L1339.0009,37.194594 L1326.20034,37.194594 L1326.20034,34.5164554 Z M1331.27226,40.4083603 L1339.0009,40.4083603 L1339.0009,43.0864989 L1331.27226,43.0864989 L1331.27226,40.4083603 Z M1327.89098,46.3002652 L1339.0009,46.3002652 L1339.0009,48.9784038 L1327.89098,48.9784038 L1327.89098,46.3002652 Z" id="Combined-Shape"></path>
            </g>
        </g>
    </g>
</svg>