<?xml version="1.0" encoding="UTF-8"?>
<svg width="15px" height="15px" viewBox="0 0 15 15" version="1.1" xmlns="http://www.w3.org/2000/svg" xmlns:xlink="http://www.w3.org/1999/xlink">
    <g id="Academic-Program---Round-1---✔️" stroke="none" stroke-width="1" fill="" fill-rule="evenodd">
        <g id="Academic-Program" transform="translate(-997.000000, -3815.000000)" fill="">
            <g id="Group-15" transform="translate(-3.000000, 3657.000000)">
                <g id="Group-10" transform="translate(1000.000000, 148.000000)">
                    <path d="M15,11.7886396 C15,11.8252564 15,11.8618733 14.9853533,11.9131369 C14.1285189,18.7311948 8.71654809,24.1285189 1.91313687,24.9853533 C1.86187327,25 1.82525642,25 1.78863957,25 C1.75202272,25 1.70075912,25 1.67146564,24.9853533 C1.58358519,24.9487364 1.5323216,24.8755027 1.49570475,24.8095924 L0.0163839001,21.0966435 C-0.0348796936,20.9355294 0.0383540117,20.7670918 0.177498052,20.6938581 L4.27126218,18.6433144 C4.39575948,18.577404 4.53490352,18.6140209 4.6374307,18.7019013 L6.62938749,20.7158282 C8.28446923,19.6905564 9.66858626,18.2844692 10.6938581,16.6293875 L8.70190135,14.6374307 C8.6140209,14.5349035 8.57740405,14.3957595 8.64331438,14.2712622 L10.6938581,10.1774981 C10.7670918,10.038354 10.9355294,9.96512031 11.0966435,10.0163839 L14.8095924,11.4957047 C14.8755027,11.5323216 14.9487364,11.5982319 14.9633831,11.6714656 C14.9853533,11.7007591 15,11.7520227 15,11.7886396 Z" id="phone"></path>
                </g>
            </g>
        </g>
    </g>
</svg>