<?xml version="1.0" encoding="UTF-8"?>
<svg width="14px" height="14px" viewBox="0 0 14 14" version="1.1" xmlns="http://www.w3.org/2000/svg" xmlns:xlink="http://www.w3.org/1999/xlink">
    <g id="Academic-Program---Round-1---✔️" stroke="none" stroke-width="1" fill="" fill-rule="evenodd">
        <g id="Academic-Program" transform="translate(-997.000000, -3869.000000)" fill="">
            <g id="Group-15" transform="translate(-3.000000, 3657.000000)">
                <g id="Group-9" transform="translate(1000.000000, 202.000000)">
                    <path d="M14,23.125 C14,23.6103516 13.6103516,24 13.125,24 L0.875,24 C0.389648438,24 0,23.6103516 0,23.125 L0,16.125 C0,15.6396484 0.389648438,15.25 0.875,15.25 L2.33105469,15.25 L2.33105469,18.1689453 L11.6689453,18.1689453 L11.6689453,15.25 L13.125,15.25 C13.6103516,15.25 14,15.6396484 14,16.125 L14,23.125 Z M12.25,21.375 C12.25,20.8896484 11.8603516,20.5 11.375,20.5 C10.8896484,20.5 10.5,20.8896484 10.5,21.375 C10.5,21.8603516 10.8896484,22.25 11.375,22.25 C11.8603516,22.25 12.25,21.8603516 12.25,21.375 Z M3.5,17 L3.5,10.2939453 C3.5,10.1298828 3.62988281,10 3.79394531,10 L10.2060547,10 C10.3701172,10 10.5,10.1298828 10.5,10.2939453 L10.5,17 L3.5,17 Z" id="fax"></path>
                </g>
            </g>
        </g>
    </g>
</svg>