<?xml version="1.0" encoding="UTF-8"?>
<svg width="39px" height="28px" viewBox="0 0 39 28" version="1.1" xmlns="http://www.w3.org/2000/svg" xmlns:xlink="http://www.w3.org/1999/xlink">
    <g id="Academic-Program---Round-1---✔️" stroke="none" stroke-width="1" fill="" fill-rule="evenodd">
        <g id="Academic-Program" transform="translate(-251.000000, -1350.000000)" fill="">
            <g id="Hover" transform="translate(160.000000, 1238.000000)">
                <g id="Group-6" transform="translate(19.000000, 22.000000)">
                    <path d="M72.3268193,107.424976 C72.3268193,98.6332766 77.6899405,92.5057286 88.0586416,90.3744076 L90.7402022,93.9266093 C84.5726128,95.7027102 81.6228961,97.9228362 81.6228961,100.853403 C81.6228961,102.895919 82.6955204,103.517554 84.9301542,104.405604 C86.9860174,105.293655 89.2206512,106.892146 89.2206512,110.533152 C89.2206512,114.529379 86.0027785,117.815166 81.3547401,117.815166 C76.0810042,117.815166 72.3268193,113.463719 72.3268193,107.424976 Z M92.3491386,107.424976 C92.3491386,98.6332766 97.7122599,92.5057286 108.080961,90.3744076 L110.762522,93.9266093 C104.684317,95.7027102 101.645215,97.9228362 101.645215,100.853403 C101.645215,102.895919 102.71784,103.517554 104.952474,104.405604 C107.008337,105.293655 109.332356,106.892146 109.332356,110.533152 C109.332356,114.529379 106.025098,117.815166 101.377059,117.815166 C96.1033235,117.815166 92.3491386,113.463719 92.3491386,107.424976 Z" id="“"></path>
                </g>
            </g>
        </g>
    </g>
</svg>