<?xml version="1.0" encoding="UTF-8"?>
<svg width="17px" height="19px" viewBox="0 0 17 19" version="1.1" xmlns="http://www.w3.org/2000/svg" xmlns:xlink="http://www.w3.org/1999/xlink">
    <g id="Core-Templates---✔️" stroke="none" stroke-width="1" fill="" fill-rule="evenodd">
        <g id="404---Image" transform="translate(-1228.000000, -531.000000)" fill="">
            <g id="Search" transform="translate(151.000000, 500.000000)">
                <path d="M1085.22721,31.0519056 C1089.25223,31.5461162 1092.12191,35.1715088 1091.63392,39.1458054 C1091.45899,40.5705532 1090.88966,41.8327005 1090.03239,42.8501699 L1093.66226,47.4034741 C1094.22118,48.1095826 1094.09573,49.1312768 1093.38374,49.6718227 C1093.03249,49.9426784 1092.60473,50.0519048 1092.17755,49.9994532 C1091.77884,49.9504984 1091.37122,49.7387 1091.08644,49.3897497 L1087.4885,44.8118221 C1086.28086,45.3866563 1084.90236,45.6265272 1083.45942,45.4493574 C1079.4344,44.9551468 1076.56473,41.3297542 1077.05271,37.3554576 C1077.54069,33.381161 1081.20219,30.557695 1085.22721,31.0519056 Z M1083.75674,43.05247 C1086.43376,43.3811667 1088.88185,41.4933842 1089.20641,38.850102 C1089.53096,36.2068198 1087.61228,33.7828655 1084.93526,33.4541688 C1082.25824,33.1254721 1079.81015,35.0132546 1079.4856,37.6565368 C1079.16104,40.299819 1081.07972,42.7237733 1083.75674,43.05247 Z" id="Combined-Shape"></path>
            </g>
        </g>
    </g>
</svg>