<?xml version="1.0" encoding="UTF-8"?>
<svg width="29px" height="30px" viewBox="0 0 29 30" version="1.1" xmlns="http://www.w3.org/2000/svg" xmlns:xlink="http://www.w3.org/1999/xlink">
    <g id="Master-Subpage---Approved" stroke="none" stroke-width="1" fill="" fill-rule="evenodd">
        <g id="Master-Sub---Image" transform="translate(-495.000000, -2508.000000)" fill="" fill-rule="nonzero" stroke="#0F0F11">
            <g id="Group-6" transform="translate(81.000000, 2458.000000)">
                <g id="Group-3" transform="translate(429.000000, 64.500000) scale(1, -1) translate(-429.000000, -64.500000) translate(412.000000, 47.000000)">
                    <g id="Group-9">
                        <path d="M6.09253253,3.71509926 C6.29306548,3.51456631 6.60876937,3.51456631 6.80930232,3.71509926 C7.00306051,3.90885745 7.00306051,4.2313361 6.80930232,4.42464264 L3.17486847,8.0590765 L15.1680034,8.0590765 C15.4475752,8.0590765 15.6770138,8.28128868 15.6770138,8.56086052 C15.6770138,8.84043235 15.4475752,9.06987095 15.1680034,9.06987095 L3.17486847,9.06987095 L6.80930232,12.69753 C7.00306051,12.898063 7.00306051,13.2209933 6.80930232,13.4142998 C6.60876937,13.6148328 6.29306548,13.6148328 6.09253253,13.4142998 L1.59770393,8.91947124 C1.40394574,8.72571305 1.40394574,8.40323439 1.59770393,8.20992786 L6.09253253,3.71509926 Z" id="Shape" transform="translate(8.564700, 8.564700) rotate(45.000000) translate(-8.564700, -8.564700) "></path>
                        <path d="M22.0925325,20.7150993 C22.2930655,20.5145663 22.6087694,20.5145663 22.8093023,20.7150993 C23.0030605,20.9088574 23.0030605,21.2313361 22.8093023,21.4246426 L19.1748685,25.0590765 L31.1680034,25.0590765 C31.4475752,25.0590765 31.6770138,25.2812887 31.6770138,25.5608605 C31.6770138,25.8404324 31.4475752,26.0698709 31.1680034,26.0698709 L19.1748685,26.0698709 L22.8093023,29.69753 C23.0030605,29.898063 23.0030605,30.2209933 22.8093023,30.4142998 C22.6087694,30.6148328 22.2930655,30.6148328 22.0925325,30.4142998 L17.5977039,25.9194712 C17.4039457,25.7257131 17.4039457,25.4032344 17.5977039,25.2099279 L22.0925325,20.7150993 Z" id="Shape" transform="translate(24.564700, 25.564700) scale(-1, -1) rotate(45.000000) translate(-24.564700, -25.564700) "></path>
                    </g>
                </g>
            </g>
        </g>
    </g>
</svg>