<?xml version="1.0" encoding="UTF-8"?>
<svg width="24px" height="20px" viewBox="0 0 24 20" version="1.1" xmlns="http://www.w3.org/2000/svg" xmlns:xlink="http://www.w3.org/1999/xlink">
    <g id="Master-Subpage---Approved" stroke="none" stroke-width="1" fill="" fill-rule="evenodd">
        <g id="Master-Sub---No-Image" transform="translate(-1081.000000, -2827.000000)" fill="" fill-rule="nonzero">
            <g id="Footer-Copy" transform="translate(0.000000, 2646.000000)">
                <g id="Group-17" transform="translate(1017.000000, 179.000000)">
                    <g id="flaticon1520878726-svg" transform="translate(64.000000, 2.000000)">
                        <path d="M23.618296,2.32662022 C23.0850535,2.56350884 22.5315065,2.7503935 21.9635065,2.88569142 C22.5893773,2.28986467 23.0599508,1.54461226 23.325431,0.712776216 C23.4012072,0.475301387 23.1437435,0.269951022 22.9296976,0.397100591 C22.139518,0.866657092 21.2883664,1.2189124 20.399824,1.444194 C20.3482728,1.45726655 20.2950831,1.46389075 20.2417179,1.46389075 C20.0798669,1.46389075 19.9225214,1.40368669 19.7987633,1.29441662 C18.8534034,0.459708125 17.637531,0 16.3751981,0 C15.8289655,0 15.2774665,0.0852939711 14.7359735,0.253537062 C13.0582463,0.774856158 11.7637305,2.16130819 11.3575815,3.87187732 C11.2052098,4.51348729 11.1639571,5.15568348 11.2348766,5.78058639 C11.2430101,5.85239746 11.2091303,5.90251866 11.1882406,5.9260258 C11.151552,5.96723656 11.0995326,5.99086094 11.0455238,5.99086094 C11.0394968,5.99086094 11.0332943,5.99056784 11.0271502,5.98998162 C7.35466446,5.6481609 4.04297897,3.87562908 1.70210721,0.998965334 C1.58273768,0.852236256 1.35382903,0.87023299 1.25868449,1.03372776 C0.800282055,1.82159784 0.558032109,2.72272425 0.558032109,3.6396784 C0.558032109,5.04494787 1.12158506,6.36926134 2.10047379,7.3346953 C1.68882443,7.236915 1.29039934,7.08291688 0.920295252,6.8769803 C0.741240945,6.77732411 0.520933929,6.90541162 0.518417806,7.11058612 C0.492788464,9.19820736 1.71281536,11.0557987 3.54045662,11.8922658 C3.50365101,11.8931451 3.46684541,11.8935555 3.42998128,11.8935555 C3.14027609,11.8935555 2.84694301,11.8655345 2.55823257,11.8102546 C2.35659167,11.7716818 2.18719225,11.9633148 2.24980274,12.1591685 C2.84302254,14.0145908 4.43765914,15.3822254 6.34593335,15.6927424 C4.76218044,16.7578325 2.91786256,17.3196589 0.998295054,17.3196589 L0.399867471,17.3193072 C0.215488345,17.3193072 0.0595472572,17.4397153 0.01256013,17.6186275 C-0.0337248234,17.7948431 0.0515307735,17.9807312 0.20875918,18.0723563 C2.37180543,19.333476 4.83906847,20 7.34489254,20 C9.53830781,20 11.5900595,19.5639163 13.4432131,18.703942 C15.142064,17.9155443 16.6433115,16.7885501 17.9052347,15.3542631 C19.0807906,14.0181667 20.0000531,12.4757821 20.6373928,10.7700199 C21.2449487,9.14404129 21.5660761,7.40908571 21.5660761,5.75268266 L21.5660761,5.67377841 C21.5660176,5.40781363 21.6860893,5.15755936 21.8955712,4.9872059 C22.6904904,4.34061312 23.3827167,3.57947434 23.9529403,2.72495186 C24.103498,2.49931853 23.8660463,2.21652944 23.618296,2.32662022 Z" id="Shape"></path>
                    </g>
                </g>
            </g>
        </g>
    </g>
</svg>