<?xml version="1.0" encoding="UTF-8"?>
<svg width="24px" height="17px" viewBox="0 0 24 17" version="1.1" xmlns="http://www.w3.org/2000/svg" xmlns:xlink="http://www.w3.org/1999/xlink">
    <g id="Master-Subpage---Approved" stroke="none" stroke-width="1" fill="" fill-rule="evenodd">
        <g id="Master-Sub---No-Image" transform="translate(-1145.000000, -2829.000000)" fill="" fill-rule="nonzero">
            <g id="Footer-Copy" transform="translate(0.000000, 2646.000000)">
                <g id="Group-17" transform="translate(1017.000000, 179.000000)">
                    <g id="flaticon1520878743-svg" transform="translate(128.000000, 4.000000)">
                        <path d="M18.9743896,0.0204311927 L4.97371429,0.0204311927 C2.22680519,0.0204311927 0,2.24893884 0,4.99794801 L0,12.002156 C0,14.7511651 2.22680519,16.9796728 4.97371429,16.9796728 L18.9743896,16.9796728 C21.7212987,16.9796728 23.9481039,14.7511651 23.9481039,12.002156 L23.9481039,4.99794801 C23.9481039,2.24893884 21.7212987,0.0204311927 18.9743896,0.0204311927 Z M15.6107013,8.8408318 L9.06212987,11.9664924 C8.88763636,12.0497768 8.68607792,11.9224587 8.68607792,11.7290122 L8.68607792,5.2823211 C8.68607792,5.08611927 8.89293506,4.95895719 9.06779221,5.04764832 L15.6163636,8.3686789 C15.8110649,8.46740367 15.8076883,8.74683792 15.6107013,8.8408318 Z" id="Shape"></path>
                    </g>
                </g>
            </g>
        </g>
    </g>
</svg>